<svg xmlns="http://www.w3.org/2000/svg" viewBox="0 0 187.16 83.75"><path d="M63.42,92.4a12.29,12.29,0,0,0,3.47-9.13,12.25,12.25,0,0,0-2.46-7.72,10.93,10.93,0,0,0-3.27-2.88,16.94,16.94,0,0,0-8.48-1.8h-9v25H54.22a12.49,12.49,0,0,0,9.2-3.45ZM53.49,76.52a6.33,6.33,0,0,1,4.84,1.81A7.21,7.21,0,0,1,60,83.45q0,6.75-6.58,6.75H50.51V76.52ZM93.8,95.85l-10.69-25H77.66l-10.77,25h7.38l1.42-3.63h9.36l1.29,3.63ZM83.19,87.16H77.58l2.83-8.54,2.78,8.54Zm19-6.48,10.41,15.17h6v-25H112l.29,15.73-10.5-15.73H95.94v25h6.58l-.28-15.17Zm29.23,7.88a7.26,7.26,0,0,1-2.08-5.26,7.11,7.11,0,0,1,2.06-5.18,7.35,7.35,0,0,1,9.1-.91,6.8,6.8,0,0,1,2.57,3.17h7.18a10.25,10.25,0,0,0-1.74-4q-4.11-6-11.94-6a14.24,14.24,0,0,0-10,3.75,12,12,0,0,0-4.08,9.17,12.09,12.09,0,0,0,4.12,9.25,14.27,14.27,0,0,0,10,3.79,14.54,14.54,0,0,0,8.69-2.7,12.26,12.26,0,0,0,4.91-7.12h-7.18a7.22,7.22,0,0,1-11.65,2ZM168.3,90.2h-8.36V86h8.11V80.34h-8.11V76.52h8.36V70.87H153.36v25H168.3V90.2Z" transform="translate(-4.3 -12.58)"/><path d="M19.23,61.3H10.88V57.1H19V51.45H10.88V47.63h8.35V42H4.3V67H19.23V61.3ZM38,61.3H30.09V42H23.23V67H38V61.3Zm17.75,0H47.44V57.1h8.11V51.45H47.44V47.63h8.35V42H40.86V67H55.79V61.3ZM67.6,59.66a7.22,7.22,0,0,1-2.08-5.26,7.06,7.06,0,0,1,2-5.17,6.89,6.89,0,0,1,5.13-2.09,7,7,0,0,1,4,1.17,6.8,6.8,0,0,1,2.57,3.17h7.18a10.1,10.1,0,0,0-1.74-4q-4.11-6-11.94-6a14.25,14.25,0,0,0-10,3.75,12,12,0,0,0-4.07,9.17,12.12,12.12,0,0,0,4.11,9.26,14.34,14.34,0,0,0,10,3.78,14.59,14.59,0,0,0,8.7-2.7,12.25,12.25,0,0,0,4.9-7.11H79.24a7,7,0,0,1-6.5,4.15,6.88,6.88,0,0,1-5.14-2.12Zm32.06-12H105V42H87.47v5.66H92.8V67h6.86V47.63ZM114.1,58.86,120.36,67h7.86l-7.3-8.5a7.59,7.59,0,0,0,6.7-7.83,8.19,8.19,0,0,0-3.31-6.85,7.44,7.44,0,0,0-3.09-1.43A27.59,27.59,0,0,0,116,42h-8.52V67h6.58V58.86Zm2.5-11.23c2.94,0,4.4,1.13,4.4,3.39s-1.49,3.5-4.48,3.5H114.1V47.63ZM138,42h-6.86V67H138V42ZM150.4,59.66a7.22,7.22,0,0,1-2.08-5.26,7.07,7.07,0,0,1,2.06-5.17,6.87,6.87,0,0,1,5.12-2.09,7,7,0,0,1,4,1.17A6.78,6.78,0,0,1,162,51.48h7.18a10.07,10.07,0,0,0-1.73-4q-4.12-6-12-6a14.21,14.21,0,0,0-10,3.75,12,12,0,0,0-4.08,9.17,12.09,12.09,0,0,0,4.12,9.26,14.29,14.29,0,0,0,10,3.78,14.57,14.57,0,0,0,8.7-2.7,12.21,12.21,0,0,0,4.9-7.11H162a7,7,0,0,1-6.5,4.15,6.88,6.88,0,0,1-5.14-2.12Z" transform="translate(-4.3 -12.58)"/><path d="M84.64,37.62a8,8,0,0,0,3.27-1.74,6.83,6.83,0,0,0,2.46-5.39c0-2.95-1.48-4.88-4.44-5.81A5.41,5.41,0,0,0,89,19.63a6.08,6.08,0,0,0-2.54-5.17,6.23,6.23,0,0,0-2.68-1.09,30.16,30.16,0,0,0-5-.3H70.56v25h8.51a25.34,25.34,0,0,0,5.57-.43ZM79.56,18.73c1.94,0,2.9.63,2.9,1.89s-1,2-2.9,2H77.14V18.73Zm.81,9.17c2.28,0,3.43.72,3.43,2.16s-1.15,2.34-3.43,2.34H77.14V27.9ZM117,34.79a11.94,11.94,0,0,0,4.13-9.21A12,12,0,0,0,117,16.35a14.53,14.53,0,0,0-10.15-3.77,14.26,14.26,0,0,0-10.07,3.75,12.15,12.15,0,0,0-4.06,9.29,12,12,0,0,0,4.08,9.19,14.33,14.33,0,0,0,10,3.73A14.56,14.56,0,0,0,117,34.79Zm-4.85-14.43a7.13,7.13,0,0,1,2.12,5.26A7.17,7.17,0,0,1,107,32.88a7.23,7.23,0,0,1-5.31-2.1,7.13,7.13,0,0,1-2.12-5.27,7,7,0,0,1,2.1-5.18,7.56,7.56,0,0,1,10.47,0Zm32.19,14.25a12.33,12.33,0,0,0,3.47-9.14,12.28,12.28,0,0,0-2.47-7.72,10.77,10.77,0,0,0-3.26-2.88,17,17,0,0,0-8.48-1.8h-9v25h10.57a12.54,12.54,0,0,0,9.21-3.44ZM134.4,18.73a6.32,6.32,0,0,1,4.84,1.8,7.21,7.21,0,0,1,1.7,5.12q0,6.75-6.58,6.75h-3V18.73ZM162.4,29l8-15.88H163l-4,10-4-10h-7.47l8,15.88v9.1h6.86V29Z" transform="translate(-4.3 -12.58)"/><path d="M175,90.66a5.28,5.28,0,0,0,1.35,3.67,4.33,4.33,0,0,0,3.33,1.5A4.15,4.15,0,0,0,183,94.35a7.75,7.75,0,0,0,1.11-1.78l.76-1.7c.47-1.05,1-1.58,1.72-1.58a1.5,1.5,0,0,1,1.08.43,1.4,1.4,0,0,1,.44,1,1.31,1.31,0,0,1-.58,1.13,2.69,2.69,0,0,1-1.56.41v3.77h.52a4.84,4.84,0,0,0,3.67-1.43,5.48,5.48,0,0,0,1.35-3.91,5.33,5.33,0,0,0-1.28-3.79,4.7,4.7,0,0,0-3.57-1.35,4.27,4.27,0,0,0-2.62.78A7.06,7.06,0,0,0,182,89l-.88,1.81c-.41.84-.93,1.26-1.57,1.26a1.1,1.1,0,0,1-.85-.39,1.3,1.3,0,0,1-.36-.92c0-.76.51-1.21,1.52-1.34V85.7a7.8,7.8,0,0,0-1.8.26,4.39,4.39,0,0,0-1.32.73,4.72,4.72,0,0,0-1.8,4Zm3.9-12.47V75.27h-3.59v9.59h3.59V81.94h12.27V78.19Zm8.93-4.47a5.19,5.19,0,0,0,2-1.16,5.4,5.4,0,0,0,1.69-4.2,5.34,5.34,0,0,0-1.71-4.17,7.06,7.06,0,0,0-4.85-1.46h-9.61v3.76h9.59a4.67,4.67,0,0,1,2.33.42,1.58,1.58,0,0,1,.66,1.45c0,1.28-1,1.93-3,1.93h-9.59V74h9.61a10.44,10.44,0,0,0,2.91-.32ZM189,49.55a9.7,9.7,0,0,0-10.7-.55,6.38,6.38,0,0,0-1.83,1.79,8.23,8.23,0,0,0-1.14,4.64v4.94h15.86V54.59a6.35,6.35,0,0,0-2.19-5ZM178.88,55A3.21,3.21,0,0,1,180,52.33a5.07,5.07,0,0,1,3.25-.92q4.28,0,4.28,3.6v1.61h-8.68V55Zm-3.59-13v3.76h15.86V42Zm13.79-15.15a8.69,8.69,0,0,0-11.71,0A7.31,7.31,0,0,0,175,32.4a7.22,7.22,0,0,0,2.38,5.51,8.86,8.86,0,0,0,11.74,0,7.63,7.63,0,0,0,0-11Zm-9.16,2.64a5,5,0,0,1,3.34-1.15,4.86,4.86,0,0,1,3.27,1.14,3.6,3.6,0,0,1,1.34,2.83,3.68,3.68,0,0,1-1.34,2.9,5.35,5.35,0,0,1-6.64,0,3.74,3.74,0,0,1,0-5.73ZM175,18.22a5.28,5.28,0,0,0,1.35,3.67,4.33,4.33,0,0,0,3.33,1.5A4.15,4.15,0,0,0,183,21.91a7.75,7.75,0,0,0,1.11-1.78l.76-1.7c.47-1.05,1-1.58,1.72-1.58a1.5,1.5,0,0,1,1.08.43,1.4,1.4,0,0,1,.44,1,1.31,1.31,0,0,1-.58,1.13,2.69,2.69,0,0,1-1.56.41v3.77h.52a4.81,4.81,0,0,0,3.67-1.43,5.48,5.48,0,0,0,1.35-3.91,5.33,5.33,0,0,0-1.28-3.79,4.7,4.7,0,0,0-3.57-1.35,4.27,4.27,0,0,0-2.62.78,7.06,7.06,0,0,0-2,2.64l-.88,1.81c-.41.84-.93,1.26-1.57,1.26a1.1,1.1,0,0,1-.85-.39,1.3,1.3,0,0,1-.36-.92c0-.76.51-1.21,1.52-1.34V13.26a7.8,7.8,0,0,0-1.8.26,4.39,4.39,0,0,0-1.32.73,4.72,4.72,0,0,0-1.8,4Z" transform="translate(-4.3 -12.58)"/></svg>