<svg xmlns="http://www.w3.org/2000/svg" viewBox="0 0 1013.94 848.22"><path d="M420.74,440.86q0-7.46-11-7.45H399.35V449h10.37Q420.73,449,420.74,440.86Zm-97.33,160.8h-9.59V649h9.46q21.12,0,21.13-23.33,0-11.48-5.45-17.72T323.41,601.66Zm77.37,36.8h18l-8.94-29.55Zm94.48-187.81a21.73,21.73,0,0,0,16.59-7.29,25.33,25.33,0,0,0,6.74-17.86,25.74,25.74,0,0,0-6.81-18.18,23,23,0,0,0-33.63-.13,25.29,25.29,0,0,0-6.74,17.92q0,11,6.81,18.25A22.32,22.32,0,0,0,495.26,450.65Zm109-25q0-11.47-5.44-17.72t-15.56-6.25h-9.59V449h9.46Q604.26,449,604.25,425.63Zm-78.15,76h-8V525.5h7.77q14.38,0,14.39-12.11Q540.23,501.66,526.1,501.66ZM416.46,408.2q0-6.54-9.33-6.54h-7.78V415h7.78Q416.46,415,416.46,408.2Zm323.7,26.71a15.15,15.15,0,0,0-10.71,4,13.57,13.57,0,0,0-.08,19.82,14.9,14.9,0,0,0,10.57,4,15.16,15.16,0,0,0,10.75-4,13.21,13.21,0,0,0,4.3-10,12.82,12.82,0,0,0-4.3-9.78A14.91,14.91,0,0,0,740.16,434.91ZM0,14.45V862.67H1013.94V14.45ZM551.63,382.09h29q17.24,0,27.22,6.22a35.91,35.91,0,0,1,10.5,10q7.89,11,7.9,26.69,0,19.71-11.14,31.63t-29.55,11.92h-34Zm43.29,100v86.44h-22V482.09ZM462.4,393.36q13-13,32.34-13t32.59,13a43,43,0,0,1,13.29,31.94q0,18.93-13.29,31.88t-32.59,13q-19.19,0-32.27-12.89T449.38,425.5Q449.38,406.33,462.4,393.36Zm-29.87,108.3V482.09h56.25v19.57H471.67v66.87h-22V501.66Zm-54.3-119.57H404.8a90.23,90.23,0,0,1,16,1,19.66,19.66,0,0,1,8.62,3.76q8.16,6.48,8.17,17.89,0,11.66-10,17.49,14.25,4.8,14.25,20.09A24.43,24.43,0,0,1,434,461a25,25,0,0,1-10.5,6q-5.58,1.48-17.88,1.49H378.23ZM353.09,493.36q13.08-13,32.14-13,25.14,0,38.36,20.87A36.32,36.32,0,0,1,429.16,515H406.1a23.17,23.17,0,0,0-8.23-11,22.28,22.28,0,0,0-29.23,3.17Q362,514.42,362,525.11q0,10.85,6.68,18.19a21.4,21.4,0,0,0,16.52,7.35q13.86,0,20.87-14.39h23.06a42.47,42.47,0,0,1-15.74,24.62,44.53,44.53,0,0,1-27.93,9.33q-19,0-32.27-13.08a43.35,43.35,0,0,1-13.22-32Q340,506.33,353.09,493.36Zm-139.71,8.3H186.56v13.22h26v19.57h-26V549h26.82v19.57H165.43V482.09h47.95Zm60.4,66.87H226.21V482.09h22V549h25.54Zm9.07-86.44H330.8v19.57H304v13.22h26v19.57H304V549H330.8v19.57H282.85Zm42.89,186.44H291.79V582.09h29q17.24,0,27.22,6.22a35.88,35.88,0,0,1,10.49,10q7.91,11,7.91,26.69,0,19.71-11.15,31.63T325.74,668.53Zm103.17,0L424.76,656H394.69l-4.53,12.57H366.44L401,582.09h17.5l34.34,86.44Zm103.67,0H513.4L480,616l.9,52.49H459.75V582.09h18.92l33.7,54.43-.91-54.43h21.12Zm-14.51-128v28H496.94V482.09h27.35q11,0,16.65,1.29a23.15,23.15,0,0,1,9.92,4.93q10.62,8.81,10.62,23.71,0,10.77-5.83,18.08a24.53,24.53,0,0,1-15.68,9l23.46,29.42H538.16ZM573.86,643.3a21.43,21.43,0,0,0,16.52,7.35q13.88,0,20.87-14.39h23.07a42.48,42.48,0,0,1-15.75,24.62,44.53,44.53,0,0,1-27.93,9.33q-19,0-32.27-13.08a45.22,45.22,0,0,1-.13-63.77q13.1-13,32.14-13,25.14,0,38.37,20.87A36.32,36.32,0,0,1,634.32,615H611.25A23.1,23.1,0,0,0,603,604a22.27,22.27,0,0,0-29.22,3.17q-6.62,7.23-6.61,17.92Q567.19,636,573.86,643.3Zm118.26-41.64H665.29v13.22h26.05v19.57H665.29V649h26.83v19.57h-48V582.09h48ZM634.64,543.3a21.43,21.43,0,0,0,16.53,7.35q13.86,0,20.86-14.39H695.1a42.48,42.48,0,0,1-15.75,24.62,44.53,44.53,0,0,1-27.93,9.33q-19,0-32.27-13.08a45.24,45.24,0,0,1-.13-63.77q13.1-13,32.15-13,25.14,0,38.36,20.87A36.32,36.32,0,0,1,695.1,515H672a23.1,23.1,0,0,0-8.23-11,22.27,22.27,0,0,0-29.22,3.17Q628,514.42,628,525.11,628,536,634.64,543.3ZM673.2,437v31.49h-22V437l-25.79-55h24l12.83,34.73,13-34.73h23.72Zm89,227.29q-4.36,5-11.77,5h-1.68V656.23a8.08,8.08,0,0,0,5-1.42,4.64,4.64,0,0,0,1.87-3.89,5,5,0,0,0-1.42-3.61,4.62,4.62,0,0,0-3.47-1.47c-2.19,0-4,1.82-5.5,5.45l-2.45,5.9a26.36,26.36,0,0,1-3.59,6.13,12.91,12.91,0,0,1-10.54,5.14,13.43,13.43,0,0,1-10.7-5.2,19.08,19.08,0,0,1-4.35-12.68q0-8.94,5.8-13.75a13.85,13.85,0,0,1,4.24-2.52,23.08,23.08,0,0,1,5.77-.92V646.3c-3.26.46-4.89,2-4.89,4.66a4.67,4.67,0,0,0,1.15,3.17,3.48,3.48,0,0,0,2.75,1.34q3.06,0,5-4.35l2.83-6.27q2.9-6.42,6.26-9.13a13,13,0,0,1,8.41-2.71q7.34,0,11.46,4.7t4.12,13.1Q766.52,659.38,762.17,664.33Zm3.36-56.91v13H726.11v10.09H714.57V597.33h11.54v10.09Zm-4.43-19.49a16.61,16.61,0,0,1-6.31,4,31.14,31.14,0,0,1-9.35,1.1H714.57v-13h30.81q9.6,0,9.61-6.65c0-2.39-.72-4.08-2.14-5s-3.91-1.46-7.47-1.46H714.57v-13h30.87q10.38,0,15.58,5,5.51,5.34,5.5,14.44T761.1,587.93ZM718.24,512.6a21.29,21.29,0,0,1,5.88-6.18,26.27,26.27,0,0,1,15.74-4.66q11.61,0,18.64,6.57t7,17.42v20h-51V528.65Q714.57,518.5,718.24,512.6Zm-3.67-17.41v-13h51v13ZM758.92,468a25.31,25.31,0,0,1-18.76,7.71A25.64,25.64,0,0,1,721.22,468,25.94,25.94,0,0,1,713.58,449a26.39,26.39,0,0,1,7.68-19.21,26.51,26.51,0,0,1,37.62,0A26.44,26.44,0,0,1,766.52,449,26.06,26.06,0,0,1,758.92,468Zm3.25-54.32q-4.36,5-11.77,5h-1.68V405.57a8.08,8.08,0,0,0,5-1.42,4.65,4.65,0,0,0,1.87-3.89,5,5,0,0,0-1.42-3.62,4.65,4.65,0,0,0-3.47-1.46c-2.19,0-4,1.81-5.5,5.44l-2.45,5.91a26.57,26.57,0,0,1-3.59,6.13,12.93,12.93,0,0,1-10.54,5.13,13.45,13.45,0,0,1-10.7-5.19,19.08,19.08,0,0,1-4.35-12.68q0-8.94,5.8-13.76a13.85,13.85,0,0,1,4.24-2.52,23.63,23.63,0,0,1,5.77-.91v12.91q-4.89.69-4.89,4.66a4.69,4.69,0,0,0,1.15,3.17,3.51,3.51,0,0,0,2.75,1.34c2,0,3.72-1.46,5-4.36l2.83-6.26q2.9-6.42,6.26-9.13a13,13,0,0,1,8.41-2.72q7.34,0,11.46,4.7c2.75,3.14,4.12,7.5,4.12,13.11S765.07,410.36,762.17,413.67ZM754,527.2q0-12.45-13.75-12.46-6.76,0-10.45,3.21t-3.68,9.17v5.65H754Z" transform="translate(0 -14.45)" fill="#d6097a"/></svg>