<?xml version="1.0" encoding="iso-8859-1"?>
<!-- Generator: Adobe Illustrator 25.4.1, SVG Export Plug-In . SVG Version: 6.00 Build 0)  -->
<svg version="1.1" xmlns="http://www.w3.org/2000/svg" xmlns:xlink="http://www.w3.org/1999/xlink" x="0px" y="0px"
	 viewBox="0 0 1011.316 848.223" style="enable-background:new 0 0 1011.316 848.223;" xml:space="preserve">
<g id="Layer_4" style="display:none;">
</g>
<g id="Layer_3">
	<g>
		<g>
			<path style="fill:#D6097A;" d="M420.738,426.414c0-4.969-3.674-7.454-11.016-7.454h-10.368v15.552h10.368
				C417.064,434.512,420.738,431.813,420.738,426.414z M323.411,587.208h-9.59v47.304h9.461c14.081,0,21.124-7.776,21.124-23.33
				c0-7.647-1.814-13.556-5.443-17.723C335.334,589.292,330.15,587.208,323.411,587.208z M400.783,624.014h18.014l-8.942-29.549
				L400.783,624.014z M495.257,436.197c6.565,0,12.095-2.428,16.589-7.284c4.491-4.856,6.739-10.81,6.739-17.859
				c0-7.221-2.268-13.28-6.804-18.18c-4.536-4.901-10.131-7.351-16.783-7.351c-6.739,0-12.357,2.408-16.848,7.221
				c-4.494,4.815-6.739,10.789-6.739,17.921c0,7.308,2.268,13.392,6.804,18.248C482.751,433.769,488.431,436.197,495.257,436.197z
				 M604.249,411.182c0-7.646-1.814-13.555-5.443-17.723c-3.629-4.167-8.813-6.251-15.552-6.251h-9.591v47.304h9.461
				C597.206,434.512,604.249,426.736,604.249,411.182z M526.103,487.208h-8.036v23.846h7.776c9.591,0,14.386-4.038,14.386-12.115
				C540.229,491.118,535.519,487.208,526.103,487.208z M416.461,393.755c0-4.364-3.11-6.547-9.331-6.547h-7.776v13.349h7.776
				C413.351,400.557,416.461,398.291,416.461,393.755z M740.164,420.459c-4.257,0-7.829,1.337-10.718,4.011
				s-4.333,5.972-4.333,9.894c0,3.972,1.419,7.284,4.257,9.932c2.839,2.649,6.36,3.972,10.565,3.972
				c4.308,0,7.894-1.337,10.756-4.011c2.863-2.674,4.294-6.022,4.294-10.046c0-3.87-1.431-7.13-4.294-9.779
				C747.829,421.784,744.319,420.459,740.164,420.459z M0,0v848.223h1013.936V0H0z M551.631,367.638h29.031
				c11.49,0,20.562,2.074,27.216,6.221c4.06,2.507,7.559,5.832,10.497,9.979c5.269,7.345,7.906,16.245,7.906,26.698
				c0,13.134-3.716,23.674-11.146,31.622c-7.431,7.95-17.281,11.923-29.548,11.923h-33.956V367.638z M594.92,467.638v86.443h-22.032
				v-86.443H594.92z M462.404,378.913c8.683-8.639,19.46-12.96,32.335-12.96c12.873,0,23.737,4.342,32.594,13.025
				c8.855,8.683,13.284,19.333,13.284,31.946c0,12.615-4.429,23.243-13.284,31.881c-8.857,8.641-19.721,12.96-32.594,12.96
				c-12.788,0-23.545-4.297-32.271-12.895c-8.727-8.596-13.089-19.201-13.089-31.817
				C449.379,398.268,453.72,387.554,462.404,378.913z M432.533,487.208v-19.57h56.246v19.57h-17.107v66.873H449.64v-66.873H432.533z
				 M378.229,367.638h26.568c7.17,0,12.506,0.346,16.006,1.037c3.499,0.693,6.37,1.944,8.618,3.758
				c5.443,4.321,8.165,10.283,8.165,17.885c0,7.776-3.327,13.608-9.98,17.496c9.504,3.198,14.257,9.894,14.257,20.088
				c0,7.517-2.637,13.738-7.906,18.663c-3.285,3.025-6.784,5.034-10.498,6.026c-3.716,0.994-9.677,1.49-17.884,1.49h-27.346V367.638
				z M353.089,478.913c8.725-8.638,19.44-12.96,32.141-12.96c16.76,0,29.548,6.956,38.361,20.866
				c3.023,4.753,4.88,9.331,5.573,13.738h-23.069c-1.729-4.625-4.471-8.287-8.229-10.986c-3.759-2.697-8.015-4.048-12.766-4.048
				c-6.567,0-12.053,2.408-16.459,7.221c-4.407,4.816-6.61,10.789-6.61,17.921c0,7.222,2.224,13.282,6.675,18.183
				c4.448,4.9,9.956,7.349,16.524,7.349c9.244,0,16.2-4.796,20.865-14.386h23.069c-2.42,10.196-7.669,18.403-15.746,24.624
				c-8.08,6.221-17.389,9.331-27.929,9.331c-12.701,0-23.458-4.362-32.271-13.089c-8.812-8.726-13.219-19.396-13.219-32.012
				C339.999,498.139,344.361,487.554,353.089,478.913z M213.382,487.208h-26.827v13.219h26.049v19.57h-26.049v14.515h26.827v19.569
				H165.43v-86.443h47.952V487.208z M273.775,554.081h-47.563v-86.443h22.032v66.874h25.531V554.081z M282.846,467.638h47.952v19.57
				h-26.827v13.219h26.05v19.57h-26.05v14.515h26.827v19.569h-47.952V467.638z M325.744,654.081h-33.955v-86.443h29.03
				c11.49,0,20.562,2.074,27.216,6.221c4.06,2.507,7.559,5.832,10.498,9.979c5.269,7.345,7.905,16.245,7.905,26.698
				c0,13.134-3.716,23.674-11.145,31.622C347.861,650.108,338.011,654.081,325.744,654.081z M428.906,654.081l-4.148-12.571h-30.067
				l-4.536,12.571h-23.717l34.604-86.443h17.496l34.344,86.443H428.906z M532.584,654.081h-19.181l-33.436-52.488l0.907,52.488
				h-21.125v-86.443h18.922l33.696,54.432l-0.908-54.432h21.125V654.081z M518.067,526.088v27.993h-21.124v-86.443h27.345
				c7.343,0,12.895,0.434,16.654,1.296c3.758,0.865,7.063,2.507,9.914,4.925c7.084,5.877,10.627,13.782,10.627,23.717
				c0,7.172-1.944,13.199-5.832,18.079c-3.888,4.882-9.116,7.885-15.681,9.007l23.457,29.419h-25.272L518.067,526.088z
				 M573.859,628.848c4.449,4.9,9.957,7.349,16.524,7.349c9.244,0,16.2-4.796,20.866-14.386h23.069
				c-2.42,10.196-7.669,18.403-15.747,24.624c-8.079,6.221-17.388,9.331-27.928,9.331c-12.701,0-23.458-4.362-32.271-13.089
				c-8.813-8.726-13.219-19.396-13.219-32.012c0-12.526,4.362-23.111,13.09-31.752c8.725-8.638,19.44-12.96,32.14-12.96
				c16.761,0,29.549,6.956,38.362,20.866c3.023,4.753,4.88,9.331,5.573,13.738h-23.069c-1.729-4.625-4.471-8.287-8.23-10.986
				c-3.758-2.697-8.015-4.048-12.765-4.048c-6.567,0-12.053,2.408-16.459,7.221c-4.407,4.816-6.61,10.789-6.61,17.921
				C567.185,617.887,569.408,623.947,573.859,628.848z M692.118,587.208h-26.827v13.219h26.05v19.57h-26.05v14.515h26.827v19.569
				h-47.952v-86.443h47.952V587.208z M634.641,528.848c4.449,4.9,9.957,7.349,16.524,7.349c9.244,0,16.2-4.796,20.866-14.386h23.068
				c-2.419,10.196-7.668,18.403-15.746,24.624c-8.08,6.221-17.389,9.331-27.929,9.331c-12.701,0-23.457-4.362-32.27-13.089
				c-8.813-8.726-13.219-19.396-13.219-32.012c0-12.526,4.361-23.111,13.089-31.752c8.726-8.638,19.44-12.96,32.141-12.96
				c16.761,0,29.549,6.956,38.362,20.866c3.023,4.753,4.88,9.331,5.572,13.738h-23.068c-1.73-4.625-4.472-8.287-8.23-10.986
				c-3.758-2.697-8.015-4.048-12.766-4.048c-6.567,0-12.052,2.408-16.459,7.221c-4.406,4.816-6.609,10.789-6.609,17.921
				C627.967,517.887,630.19,523.947,634.641,528.848z M673.196,422.589v31.492h-22.032v-31.492l-25.79-54.951h23.976l12.83,34.733
				l12.96-34.733h23.717L673.196,422.589z M762.167,649.885c-2.903,3.311-6.825,4.966-11.766,4.966h-1.68v-13.065
				c2.089,0,3.756-0.473,5.004-1.424c1.248-0.949,1.872-2.244,1.872-3.887c0-1.436-0.471-2.641-1.414-3.617
				c-0.942-0.974-2.101-1.462-3.476-1.462c-2.189,0-4.023,1.815-5.501,5.442l-2.445,5.903c-1.069,2.455-2.265,4.499-3.591,6.133
				c-2.75,3.425-6.264,5.136-10.543,5.136c-4.227,0-7.793-1.73-10.696-5.195c-2.903-3.463-4.355-7.69-4.355-12.682
				c0-5.959,1.937-10.543,5.807-13.752c1.478-1.223,2.891-2.063,4.24-2.521c1.35-0.459,3.273-0.764,5.768-0.917v12.911
				c-3.259,0.459-4.889,2.013-4.889,4.661c0,1.222,0.382,2.28,1.146,3.17c0.764,0.892,1.681,1.337,2.75,1.337
				c2.038,0,3.719-1.451,5.043-4.354l2.826-6.265c1.937-4.279,4.024-7.321,6.265-9.13c2.242-1.807,5.043-2.712,8.404-2.712
				c4.89,0,8.71,1.566,11.46,4.698c2.75,3.133,4.126,7.501,4.126,13.103C766.522,642.067,765.07,646.575,762.167,649.885z
				 M765.529,592.968v12.988h-39.423v10.084H714.57v-33.157h11.536v10.085H765.529z M761.097,573.486
				c-1.986,1.937-4.087,3.274-6.303,4.011c-2.215,0.739-5.335,1.108-9.359,1.108H714.57v-12.988h30.807
				c6.405,0,9.608-2.216,9.608-6.647c0-2.393-0.711-4.074-2.134-5.042c-1.423-0.967-3.914-1.452-7.474-1.452H714.57v-12.988h30.865
				c6.928,0,12.123,1.681,15.586,5.043c3.667,3.565,5.501,8.379,5.501,14.439C766.522,565.082,764.714,569.922,761.097,573.486z
				 M718.237,498.156c1.478-2.394,3.438-4.456,5.883-6.189c4.329-3.106,9.576-4.66,15.738-4.66c7.743,0,13.956,2.191,18.642,6.571
				c4.686,4.381,7.029,10.187,7.029,17.419v20.017H714.57V514.2C714.57,507.427,715.792,502.079,718.237,498.156z M714.57,480.738
				V467.75h50.959v12.988H714.57z M758.92,453.54c-5.068,5.145-11.319,7.716-18.756,7.716c-7.538,0-13.854-2.559-18.947-7.678
				s-7.641-11.472-7.641-19.062c0-7.588,2.56-13.993,7.679-19.214c5.118-5.22,11.396-7.831,18.832-7.831
				c7.437,0,13.702,2.611,18.795,7.831c5.093,5.221,7.64,11.626,7.64,19.214C766.522,442.055,763.989,448.396,758.92,453.54z
				 M762.167,399.221c-2.903,3.312-6.825,4.966-11.766,4.966h-1.68v-13.064c2.089,0,3.756-0.474,5.004-1.424
				c1.248-0.949,1.872-2.244,1.872-3.887c0-1.436-0.471-2.642-1.414-3.617c-0.942-0.974-2.101-1.462-3.476-1.462
				c-2.189,0-4.023,1.814-5.501,5.442l-2.445,5.903c-1.069,2.454-2.265,4.498-3.591,6.132c-2.75,3.425-6.264,5.137-10.543,5.137
				c-4.227,0-7.793-1.731-10.696-5.195c-2.903-3.463-4.355-7.69-4.355-12.682c0-5.959,1.937-10.543,5.807-13.752
				c1.478-1.222,2.891-2.063,4.24-2.521c1.35-0.458,3.273-0.764,5.768-0.917v12.912c-3.259,0.458-4.889,2.013-4.889,4.66
				c0,1.222,0.382,2.28,1.146,3.171c0.764,0.892,1.681,1.337,2.75,1.337c2.038,0,3.719-1.452,5.043-4.355l2.826-6.265
				c1.937-4.278,4.024-7.321,6.265-9.13c2.242-1.807,5.043-2.712,8.404-2.712c4.89,0,8.71,1.566,11.46,4.698
				c2.75,3.132,4.126,7.5,4.126,13.103C766.522,391.403,765.07,395.91,762.167,399.221z M753.992,512.748
				c0-8.301-4.584-12.453-13.753-12.453c-4.508,0-7.991,1.07-10.448,3.209c-2.457,2.139-3.685,5.195-3.685,9.168v5.654h27.886
				V512.748z"/>
		</g>
	</g>
</g>
<g id="Layer_2">
</g>
</svg>
