<?xml version="1.0" encoding="utf-8"?>
<!-- Generator: Adobe Illustrator 25.4.1, SVG Export Plug-In . SVG Version: 6.00 Build 0)  -->
<svg version="1.1" id="Layer_1" xmlns="http://www.w3.org/2000/svg" xmlns:xlink="http://www.w3.org/1999/xlink" x="0px" y="0px"
	 viewBox="0 0 1920 1080" style="enable-background:new 0 0 1920 1080;" xml:space="preserve">
<style type="text/css">
	.st0{clip-path:url(#SVGID_00000098207223931378593210000003095160096170868646_);fill:#FC0000;}
	
		.st1{clip-path:url(#SVGID_00000098207223931378593210000003095160096170868646_);fill-rule:evenodd;clip-rule:evenodd;fill:#FFFFFF;}
	.st2{clip-path:url(#SVGID_00000098207223931378593210000003095160096170868646_);fill:#F71919;}
	
		.st3{opacity:0;clip-path:url(#SVGID_00000098207223931378593210000003095160096170868646_);fill:#E303FC;stroke:#000000;stroke-miterlimit:10;}
	.st4{clip-path:url(#SVGID_00000098207223931378593210000003095160096170868646_);fill:#F40B0B;}
	.st5{clip-path:url(#SVGID_00000098207223931378593210000003095160096170868646_);fill:none;stroke:#FFFFFF;stroke-width:12;}
</style>
<g>
	<defs>
		<line id="SVGID_1_" x1="1881.8" y1="211.7" x2="1679.6" y2="362.4"/>
	</defs>
	<clipPath id="SVGID_00000052066162643017955590000000930716743822663577_">
		<use xlink:href="#SVGID_1_"  style="overflow:visible;"/>
	</clipPath>
	
		<rect x="-206.5" y="-172.6" style="clip-path:url(#SVGID_00000052066162643017955590000000930716743822663577_);fill:#FC0000;" width="2516.3" height="1487.1"/>
	
		<polygon style="clip-path:url(#SVGID_00000052066162643017955590000000930716743822663577_);fill-rule:evenodd;clip-rule:evenodd;fill:#FFFFFF;" points="
		261.8,47 261.8,2377 1845.5,2377 1845.5,47 	"/>
	<path style="clip-path:url(#SVGID_00000052066162643017955590000000930716743822663577_);fill:#F71919;" d="M618.3,913
		c22.5-24.1,33.7-56,33.7-95.7c0-31.6-8-58.6-23.9-80.8c-8.9-12.6-19.5-22.6-31.8-30.2c-20.1-12.5-47.6-18.8-82.4-18.8H426v261.6
		h102.8C566,949.1,595.8,937.1,618.3,913L618.3,913z M521.8,746.7c20.4,0,36.1,6.3,47.1,18.9c11,12.6,16.5,30.5,16.5,53.6
		c0,47.1-21.3,70.6-63.9,70.6h-28.6V746.7H521.8L521.8,746.7z M913.7,949.1l-104-261.6h-53L652.1,949.1h71.8l13.7-38h91l12.6,38
		H913.7L913.7,949.1z M810.5,858.1H756l27.5-89.4L810.5,858.1L810.5,858.1z M995.6,790.3l101.2,158.9h58.1V687.5H1091l2.7,164.7
		l-102-164.7h-57.3v261.6h63.9L995.6,790.3L995.6,790.3z M1279.8,872.7c-13.5-14.8-20.2-33.2-20.2-55c0-21.6,6.7-39.7,20-54.2
		c13.3-14.6,29.9-21.9,49.8-21.9c14.4,0,27.3,4.1,38.6,12.3c11.4,8.2,19.7,19.3,24.9,33.2h69.8c-2.1-13.3-7.7-27.2-16.9-41.6
		c-26.7-42.1-65.4-63.1-116.1-63.1c-38.4,0-70.9,13.1-97.3,39.2c-26.4,26.2-39.6,58.2-39.6,96.1c0,38.2,13.3,70.5,40,96.9
		s59.2,39.6,97.7,39.6c31.9,0,60.1-9.4,84.5-28.2s40.3-43.7,47.7-74.5h-69.8c-14.1,29-35.2,43.5-63.1,43.5
		C1309.9,895,1293.3,887.6,1279.8,872.7L1279.8,872.7z M1637.7,889.9h-81.2V846h78.8v-59.2h-78.8v-40h81.2v-59.2h-145.1v261.6h145.1
		V889.9L1637.7,889.9z"/>
	<path style="clip-path:url(#SVGID_00000052066162643017955590000000930716743822663577_);fill:#F71919;" d="M188.8,587.2h-81.2
		v-43.9h78.8v-59.2h-78.8v-40h81.2v-59.2H43.7v261.6h145.1V587.2L188.8,587.2z M371.6,587.2h-77.3V384.9h-66.7v261.6h143.9v-59.3
		H371.6z M544.2,587.2H463v-43.9h78.8v-59.2H463v-40h81.2v-59.2H399.1v261.6h145.1V587.2L544.2,587.2z M658.9,570.1
		c-13.5-14.8-20.2-33.2-20.2-55c0-21.6,6.7-39.7,20-54.2c13.3-14.6,29.9-21.9,49.8-21.9c14.4,0,27.3,4.1,38.6,12.3
		c11.4,8.2,19.7,19.3,24.9,33.2h69.8c-2.1-13.3-7.7-27.2-16.9-41.6c-26.7-42.1-65.4-63.1-116.1-63.1c-38.4,0-70.9,13.1-97.3,39.2
		c-26.4,26.2-39.6,58.2-39.6,96.1c0,38.2,13.3,70.5,40,96.9s59.2,39.6,97.7,39.6c31.9,0,60.1-9.4,84.5-28.2s40.3-43.7,47.7-74.5H772
		c-14.1,29-35.2,43.5-63.1,43.5C689,592.3,672.4,584.9,658.9,570.1L658.9,570.1z M970.5,444.1h51.8v-59.2H852.1v59.2h51.8v202.4
		h66.7L970.5,444.1L970.5,444.1z M1110.9,561.8l60.8,84.7h76.5l-71-89c19.9-3.4,35.7-12.5,47.5-27.3s17.7-33,17.7-54.7
		c0-30.1-10.7-54-32.2-71.8c-8.6-7.3-18.6-12.3-30-14.9s-28.2-3.9-50.4-3.9H1047v261.6h63.9V561.8L1110.9,561.8z M1135.3,444.1
		c28.5,0,42.8,11.8,42.8,35.5c0,24.4-14.5,36.7-43.5,36.7h-23.5v-72.2L1135.3,444.1L1135.3,444.1z M1343.5,384.9h-66.7v261.6h66.7
		V384.9L1343.5,384.9z M1463.7,570.1c-13.5-14.8-20.2-33.2-20.2-55c0-21.6,6.7-39.7,20-54.2c13.3-14.6,29.9-21.9,49.8-21.9
		c14.4,0,27.3,4.1,38.6,12.3c11.4,8.2,19.7,19.3,24.9,33.2h69.8c-2.1-13.3-7.7-27.2-16.9-41.6c-26.7-42.1-65.4-63.1-116.1-63.1
		c-38.4,0-70.9,13.1-97.3,39.2c-26.4,26.2-39.6,58.2-39.6,96.1c0,38.2,13.3,70.5,40,96.9s59.2,39.6,97.7,39.6
		c31.9,0,60.1-9.4,84.5-28.2s40.3-43.7,47.7-74.5h-69.8c-14.1,29-35.2,43.5-63.1,43.5C1493.9,592.3,1477.2,584.9,1463.7,570.1
		L1463.7,570.1z"/>
	
		<rect x="-184.6" y="-112.9" style="opacity:0;clip-path:url(#SVGID_00000052066162643017955590000000930716743822663577_);fill:#E303FC;stroke:#000000;stroke-miterlimit:10;" width="2317.3" height="1284.1"/>
	<path style="clip-path:url(#SVGID_00000052066162643017955590000000930716743822663577_);fill:#F40B0B;" d="M824.6,339.3
		c11.2-3,21.8-9.1,31.8-18.2c15.9-14.9,23.9-33.7,23.9-56.5c0-30.9-14.4-51.1-43.1-60.8c20.1-11.8,30.2-29.4,30.2-52.9
		c0-23-8.2-41-24.7-54.1c-6.8-5.5-15.5-9.3-26.1-11.4s-26.7-3.1-48.4-3.1h-80.4v261.6h82.8C795.3,343.8,813.4,342.3,824.6,339.3
		L824.6,339.3z M775.2,141.4c18.8,0,28.2,6.6,28.2,19.8c0,13.7-9.4,20.6-28.2,20.6h-23.5v-40.4H775.2L775.2,141.4z M783,237.5
		c22.2,0,33.3,7.5,33.3,22.6c0,16.3-11.1,24.5-33.3,24.5h-31.4v-47.1H783L783,237.5z M1139,309.7c26.8-26.1,40.2-58.3,40.2-96.5
		s-13.4-70.4-40.2-96.7c-26.8-26.3-59.7-39.4-98.6-39.4c-39,0-71.6,13.1-97.9,39.2c-26.3,26.1-39.4,58.6-39.4,97.3
		c0,38.2,13.2,70.3,39.6,96.3c26.4,26,59,39,97.7,39C1079.3,348.9,1112.2,335.9,1139,309.7L1139,309.7z M1091.9,158.6
		c13.7,14.8,20.6,33.2,20.6,55c0,21.3-6.8,39.4-20.4,54c-13.6,14.7-30.3,22-50.2,22c-20.7,0-37.8-7.3-51.6-22
		c-13.7-14.7-20.6-33.1-20.6-55.2c0-21.6,6.8-39.7,20.4-54.2c13.6-14.6,30.6-21.9,51-21.9C1061.3,136.3,1078.2,143.8,1091.9,158.6
		L1091.9,158.6z M1404.7,307.7c22.5-24.1,33.7-56,33.7-95.7c0-31.6-8-58.6-23.9-80.8c-8.9-12.6-19.5-22.6-31.8-30.2
		c-20.1-12.6-47.6-18.8-82.4-18.8h-87.9v261.6h102.8C1352.4,343.8,1382.2,331.8,1404.7,307.7L1404.7,307.7z M1308.2,141.4
		c20.4,0,36.1,6.3,47.1,18.9c11,12.6,16.5,30.5,16.5,53.6c0,47.1-21.3,70.6-63.9,70.6h-28.6V141.4H1308.2L1308.2,141.4z
		 M1580.4,248.5l77.7-166.3h-71.8l-39.2,105.1l-38.8-105.1h-72.6l78.1,166.3v95.3h66.7L1580.4,248.5L1580.4,248.5z"/>
	<path style="clip-path:url(#SVGID_00000052066162643017955590000000930716743822663577_);fill:#F71919;" d="M1702.6,894.8
		c0,15.1,4.4,27.9,13.2,38.4c8.8,10.5,19.6,15.7,32.4,15.7c12.9,0,23.6-5.2,31.9-15.5c4-4.9,7.6-11.1,10.9-18.6l7.4-17.9
		c4.5-11,10-16.5,16.6-16.5c4.2,0,7.7,1.5,10.5,4.4c2.9,3,4.3,6.6,4.3,10.9c0,5-1.9,8.9-5.7,11.8c-3.8,2.9-8.8,4.3-15.1,4.3v39.5
		h5.1c15,0,26.8-5,35.6-15c8.8-10,13.2-23.7,13.2-40.9c0-17-4.2-30.2-12.5-39.7s-19.9-14.2-34.7-14.2c-10.2,0-18.6,2.7-25.4,8.2
		s-13.1,14.7-19,27.6l-8.6,19c-4,8.8-9.1,13.2-15.3,13.2c-3.2,0-6-1.3-8.3-4s-3.5-5.9-3.5-9.6c0-8,4.9-12.7,14.8-14.1v-39.1
		c-7.6,0.5-13.4,1.4-17.5,2.8c-4.1,1.4-8.4,3.9-12.8,7.6C1708.5,862.9,1702.6,876.8,1702.6,894.8L1702.6,894.8L1702.6,894.8z
		 M1740.6,764.2v-30.5h-34.9V834h34.9v-30.5h119.3v-39.3H1740.6L1740.6,764.2z M1827.4,717.3c6.7-2.2,13.1-6.3,19.1-12.1
		c10.9-10.8,16.4-25.4,16.4-43.9c0-18.3-5.6-32.9-16.6-43.7c-10.5-10.2-26.2-15.3-47.2-15.3h-93.4v39.3h93.2
		c10.8,0,18.3,1.5,22.6,4.4c4.3,2.9,6.5,8,6.5,15.3c0,13.4-9.7,20.1-29.1,20.1h-93.2v39.3h93.4
		C1811.2,720.7,1820.7,719.6,1827.4,717.3L1827.4,717.3z M1838.6,464.3c-14.2-13.3-33-19.9-56.4-19.9c-18.6,0-34.5,4.7-47.6,14.1
		c-7.4,5.2-13.3,11.5-17.8,18.7c-7.4,11.9-11.1,28.1-11.1,48.6v51.8h154.2V517C1859.9,495.1,1852.8,477.5,1838.6,464.3L1838.6,464.3
		z M1740.6,521.2c0-12,3.7-21.3,11.2-27.7c7.4-6.5,18-9.7,31.6-9.7c27.7,0,41.6,12.6,41.6,37.7v16.9h-84.4L1740.6,521.2
		L1740.6,521.2z M1705.6,385.2v39.3h154.2v-39.3H1705.6L1705.6,385.2z M1839.7,226.5c-15.4-15.8-34.4-23.7-56.9-23.7
		s-41.5,7.9-57,23.7s-23.2,35.2-23.2,58.2s7.7,42.2,23.1,57.7s34.5,23.2,57.3,23.2c22.5,0,41.4-7.8,56.8-23.4
		c15.3-15.6,23-34.8,23-57.6C1862.9,261.7,1855.2,242.3,1839.7,226.5L1839.7,226.5z M1750.7,254.2c8.7-8.1,19.6-12.1,32.4-12.1
		c12.6,0,23.2,4,31.9,12c8.7,8,13,17.9,13,29.6c0,12.2-4.3,22.3-13,30.4s-19.5,12.1-32.6,12.1c-12.7,0-23.4-4-32-12
		s-12.9-18-12.9-30.1C1737.5,272.3,1741.9,262.3,1750.7,254.2L1750.7,254.2z M1702.6,136.2c0,15.1,4.4,27.9,13.2,38.4
		c8.8,10.5,19.6,15.7,32.4,15.7c12.9,0,23.6-5.2,31.9-15.5c4-4.9,7.6-11.1,10.9-18.6l7.4-17.9c4.5-11,10-16.5,16.6-16.5
		c4.2,0,7.7,1.5,10.5,4.4c2.9,3,4.3,6.6,4.3,10.9c0,5-1.9,8.9-5.7,11.8c-3.8,2.9-8.8,4.3-15.1,4.3v39.5h5.1c15,0,26.8-5,35.6-15
		c8.8-10,13.2-23.7,13.2-40.9c0-17-4.2-30.2-12.5-39.7S1830.5,83,1815.7,83c-10.2,0-18.6,2.7-25.4,8.2s-13.1,14.7-19,27.6l-8.6,19
		c-4,8.8-9.1,13.2-15.3,13.2c-3.2,0-6-1.3-8.3-4s-3.5-5.9-3.5-9.6c0-8,4.9-12.7,14.8-14.1V84.2c-7.6,0.5-13.4,1.4-17.5,2.8
		s-8.4,3.9-12.8,7.6C1708.5,104.3,1702.6,118.1,1702.6,136.2L1702.6,136.2L1702.6,136.2z"/>
	
		<line style="clip-path:url(#SVGID_00000052066162643017955590000000930716743822663577_);fill:none;stroke:#FFFFFF;stroke-width:12;" x1="1148.4" y1="96.9" x2="923.8" y2="319.2"/>
</g>
</svg>
