<svg xmlns="http://www.w3.org/2000/svg" xmlns:xlink="http://www.w3.org/1999/xlink" viewBox="0 0 254.44 248"><defs><clipPath id="a" transform="translate(20.05 39.44)"/></defs><g clip-path="url(#a)"><path d="M189,100.46q0-3.9-4.32-3.9a4.83,4.83,0,0,0-3.27,1,3.61,3.61,0,0,0-1.16,2.88v1.77H189ZM84.55,73.39c0-1.56-1.15-2.33-3.45-2.33H77.85v4.87H81.1C83.4,75.93,84.55,75.09,84.55,73.39ZM83.21,63.15c0-1.37-1-2-2.93-2H77.85v4.19h2.43C82.24,65.29,83.21,64.58,83.21,63.15ZM54,123.81H51v14.83h3q6.61,0,6.62-7.32a8.17,8.17,0,0,0-1.71-5.55A6.1,6.1,0,0,0,54,123.81Zm24.25,11.54h5.65l-2.8-9.27Zm39.3-42.9h-2.52v7.48h2.43q4.52,0,4.52-3.8T117.59,92.45Zm24.5-23.83a8.2,8.2,0,0,0-1.71-5.56,6.11,6.11,0,0,0-4.88-2h-3V75.93h3Q142.09,75.93,142.09,68.62Zm-34.17,7.84a6.83,6.83,0,0,0,5.2-2.28,8.59,8.59,0,0,0,0-11.3,7.22,7.22,0,0,0-10.55,0,7.91,7.91,0,0,0-2.11,5.62,8.08,8.08,0,0,0,2.13,5.72A7,7,0,0,0,107.92,76.46Zm76.78-4.93a4.76,4.76,0,0,0-3.36,1.25,4.26,4.26,0,0,0,0,6.22,4.66,4.66,0,0,0,3.31,1.24A4.74,4.74,0,0,0,188,79a4.13,4.13,0,0,0,1.35-3.15A4,4,0,0,0,188,72.77,4.69,4.69,0,0,0,184.7,71.53ZM-20-39.44v248H234.39v-248ZM125.59,55h9.1q5.4,0,8.54,2A11.2,11.2,0,0,1,146.52,60,14,14,0,0,1,149,68.41q0,6.18-3.5,9.92a12.09,12.09,0,0,1-9.26,3.74H125.59Zm13.57,31.36v27.1h-6.91V86.32ZM97.61,58.5a13.82,13.82,0,0,1,10.14-4.06A14,14,0,0,1,118,58.52a14.09,14.09,0,0,1,0,20,14.08,14.08,0,0,1-10.22,4.07,13.85,13.85,0,0,1-10.12-4,13.46,13.46,0,0,1-4.1-10A13.66,13.66,0,0,1,97.61,58.5Zm-9.36,34V86.32h17.63v6.13h-5.36v21H93.61v-21ZM71.22,55h8.33a27.84,27.84,0,0,1,5,.33,6.09,6.09,0,0,1,2.7,1.18,6.75,6.75,0,0,1,2.56,5.61,6,6,0,0,1-3.13,5.48,6.06,6.06,0,0,1,4.47,6.3,7.65,7.65,0,0,1-2.47,5.85,7.82,7.82,0,0,1-3.3,1.89,23.91,23.91,0,0,1-5.6.47H71.22ZM63.34,89.85a13.78,13.78,0,0,1,10.08-4.06,13.4,13.4,0,0,1,12,6.54,11.41,11.41,0,0,1,1.74,4.31H80a7.26,7.26,0,0,0-2.58-3.45,7,7,0,0,0-9.16,1,8,8,0,0,0-2.08,5.62,8.16,8.16,0,0,0,2.1,5.7,6.69,6.69,0,0,0,5.18,2.3q4.35,0,6.54-4.51h7.23A13.33,13.33,0,0,1,82.26,111,14,14,0,0,1,73.5,114a13.83,13.83,0,0,1-10.12-4.11,14.18,14.18,0,0,1,0-20Zm-43.8,2.6H11.13V96.6h8.16v6.13H11.13v4.55h8.41v6.14H4.5V86.32h15Zm18.93,21H23.56V86.32h6.91v21h8Zm2.85-27.1h15v6.13H47.94V96.6h8.17v6.13H47.94v4.55h8.41v6.14h-15Zm13.45,58.45H44.12v-27.1h9.1c3.61,0,6.45.65,8.54,2a11.37,11.37,0,0,1,3.29,3.13A15.61,15.61,0,0,1,64,141,12.09,12.09,0,0,1,54.77,144.77Zm32.34,0-1.3-3.94H76.38L75,144.77H67.53l10.85-27.1h5.48l10.77,27.1Zm32.51,0h-6l-10.48-16.45.29,16.45H96.78v-27.1h5.93l10.57,17.07L113,117.67h6.63Zm-4.55-40.13v8.78h-6.63V86.32H117a25.19,25.19,0,0,1,5.22.4,7.36,7.36,0,0,1,3.11,1.55,9.16,9.16,0,0,1,3.33,7.43,8.81,8.81,0,0,1-1.83,5.67,7.76,7.76,0,0,1-4.92,2.83l7.36,9.22h-7.93Zm17.49,32.22a6.7,6.7,0,0,0,5.18,2.31c2.9,0,5.08-1.51,6.54-4.51h7.23a13.31,13.31,0,0,1-4.93,7.72,14.57,14.57,0,0,1-18.88-1.18,14.18,14.18,0,0,1,0-20,13.79,13.79,0,0,1,10.08-4.07,13.39,13.39,0,0,1,12,6.54,11.24,11.24,0,0,1,1.74,4.31h-7.23a7.18,7.18,0,0,0-2.58-3.44,7,7,0,0,0-9.16,1,8,8,0,0,0-2.07,5.62A8.12,8.12,0,0,0,132.56,136.86Zm37.08-13.05h-8.41V128h8.16v6.14h-8.16v4.55h8.41v6.13h-15v-27.1h15Zm-18-18.3a6.69,6.69,0,0,0,5.18,2.3q4.35,0,6.54-4.51h7.23a13.29,13.29,0,0,1-4.94,7.72,14.52,14.52,0,0,1-18.87-1.18,14.18,14.18,0,0,1,0-20,13.76,13.76,0,0,1,10.08-4.06,13.37,13.37,0,0,1,12,6.54,11.44,11.44,0,0,1,1.75,4.31h-7.23a7.26,7.26,0,0,0-2.58-3.45,7,7,0,0,0-9.16,1,8,8,0,0,0-2.08,5.62A8.16,8.16,0,0,0,151.62,105.51ZM163.7,72.19v9.88h-6.9V72.19L148.71,55h7.52l4,10.89L164.31,55h7.44Zm27.9,71.27a4.65,4.65,0,0,1-3.69,1.55h-.53v-4.09a2.5,2.5,0,0,0,1.57-.45,1.45,1.45,0,0,0,.59-1.22,1.59,1.59,0,0,0-.44-1.13,1.45,1.45,0,0,0-1.09-.46c-.69,0-1.26.57-1.73,1.71l-.76,1.85a8.61,8.61,0,0,1-1.13,1.92,4.06,4.06,0,0,1-3.31,1.61,4.21,4.21,0,0,1-3.35-1.63,6,6,0,0,1-1.37-4,5.29,5.29,0,0,1,1.83-4.32,4.47,4.47,0,0,1,1.32-.79,7.24,7.24,0,0,1,1.81-.28v4q-1.53.22-1.53,1.47a1.47,1.47,0,0,0,.36,1,1.1,1.1,0,0,0,.86.42c.64,0,1.17-.46,1.58-1.37l.89-2a7.75,7.75,0,0,1,2-2.86,4.06,4.06,0,0,1,2.64-.85,4.53,4.53,0,0,1,3.59,1.47,6,6,0,0,1,1.29,4.11A6.21,6.21,0,0,1,191.6,143.46Zm1.05-17.85v4.07H180.29v3.17h-3.61v-10.4h3.61v3.16Zm-1.39-6.11a5.15,5.15,0,0,1-2,1.26,9.75,9.75,0,0,1-2.94.35h-9.67V117h9.66c2,0,3-.7,3-2.09a1.79,1.79,0,0,0-.67-1.58,4.44,4.44,0,0,0-2.34-.45h-9.66v-4.08h9.67a6.74,6.74,0,0,1,4.89,1.59A6,6,0,0,1,193,115,6.06,6.06,0,0,1,191.26,119.5ZM177.83,95.89A6.52,6.52,0,0,1,179.67,94a9.18,9.18,0,0,1,10.78.59,7.14,7.14,0,0,1,2.2,5.47v6.27h-16v-5.36A9.41,9.41,0,0,1,177.83,95.89Zm-1.15-5.47V86.35h16v4.07Zm13.9-8.52a7.94,7.94,0,0,1-5.88,2.42,8.22,8.22,0,0,1-8.34-8.39,8.29,8.29,0,0,1,2.41-6,8.31,8.31,0,0,1,11.8,0,8.27,8.27,0,0,1,2.39,6A8.17,8.17,0,0,1,190.58,81.9Zm1-17a4.65,4.65,0,0,1-3.69,1.55h-.53V62.33a2.5,2.5,0,0,0,1.57-.45,1.45,1.45,0,0,0,.59-1.22,1.57,1.57,0,0,0-.44-1.13,1.45,1.45,0,0,0-1.09-.46c-.69,0-1.26.57-1.73,1.71l-.76,1.85a8.61,8.61,0,0,1-1.13,1.92,4.06,4.06,0,0,1-3.31,1.61,4.21,4.21,0,0,1-3.35-1.63,6,6,0,0,1-1.37-4,5.29,5.29,0,0,1,1.83-4.32,4.47,4.47,0,0,1,1.32-.79,7.24,7.24,0,0,1,1.81-.28v4c-1,.15-1.53.63-1.53,1.46a1.48,1.48,0,0,0,.36,1,1.1,1.1,0,0,0,.86.42c.64,0,1.17-.46,1.58-1.37l.89-2a7.75,7.75,0,0,1,2-2.86,4.06,4.06,0,0,1,2.64-.85,4.53,4.53,0,0,1,3.59,1.47A6,6,0,0,1,193,60.63,6.21,6.21,0,0,1,191.6,64.87Z" transform="translate(20.05 39.44)"/></g></svg>