<svg id="Layer_1" data-name="Layer 1" xmlns="http://www.w3.org/2000/svg" viewBox="0 0 1384.48 659.51"><defs><style>.cls-1,.cls-2,.cls-3{fill:#fff;}.cls-2,.cls-3{stroke:#fff;}.cls-2{stroke-width:12px;}.cls-3{stroke-width:8px;}</style></defs><path class="cls-1" d="M669.22,809.2q25.37-27.13,25.36-72,0-35.67-18-60.75a82,82,0,0,0-23.89-22.71Q630,639.61,590.77,639.61H524.71V836.33H602q41.87,0,67.24-27.13ZM596.67,684.15q23,0,35.39,14.22t12.38,40.33q0,53.1-48.07,53.1H574.84V684.15ZM891.3,836.33,813.14,639.61H773.33L694.58,836.33h54l10.33-28.61H827.3l9.44,28.61Zm-77.57-68.42h-41l20.64-67.25,20.35,67.25Zm139.2-51L1029,836.33h43.65V639.61H1024.6l2.06,123.87L950,639.61H906.92V836.33H955l-2.07-119.45Zm213.67,62q-15.19-16.74-15.19-41.38,0-24.35,15-40.78t37.46-16.44a48.6,48.6,0,0,1,29,9.22,52.62,52.62,0,0,1,18.73,25h52.49q-2.36-15-12.68-31.27-30.07-47.47-87.3-47.48-43.35,0-73.14,29.49t-29.79,72.26q0,43.07,30.09,72.85t73.43,29.78q36,0,63.56-21.23t35.83-56h-52.49q-15.93,32.75-47.49,32.74-22.41,0-37.6-16.72Zm269.12,12.89h-61v-33H1434V714.23h-59.28V684.15h61V639.61H1326.59V836.33h109.13V791.8Z" transform="translate(-237.16 -180.65)"/><path class="cls-1" d="M346.28,564.23h-61v-33h59.28V486.67H285.23V456.58h61V412.05H237.16V608.76H346.28V564.23Zm137.43,0h-58.1V412.05H375.48V608.76H483.71V564.23Zm129.77,0H552.43v-33h59.28V486.67H552.43V456.58h61.05V412.05H504.36V608.76H613.48V564.23Zm86.26-12.89Q684.55,534.62,684.55,510q0-24.34,15-40.78t37.46-16.43A48.59,48.59,0,0,1,766.1,462a52.67,52.67,0,0,1,18.73,25h52.49q-2.36-15-12.68-31.26-30.07-47.49-87.29-47.49-43.36,0-73.15,29.5T634.42,510q0,43.07,30.08,72.85t73.43,29.79q36,0,63.56-21.24t35.83-56H784.83q-15.93,32.73-47.48,32.74-22.43,0-37.61-16.73Zm234.32-94.76H973V412.05H845v44.53h38.93V608.76h50.14V456.58Zm105.58,88.48,45.71,63.7h57.51l-53.38-66.94q22.41-3.84,35.68-20.5t13.28-41.14q0-33.92-24.19-54A52.52,52.52,0,0,0,1091.69,415q-12.82-2.94-37.9-2.95H991.57V608.76h48.07v-63.7Zm18.28-88.48q32.14,0,32.15,26.7,0,27.57-32.74,27.57h-17.69V456.58Zm156.61-44.53h-50.14V608.76h50.14V412.05Zm90.39,139.29q-15.2-16.73-15.19-41.38,0-24.34,15-40.78t37.45-16.43a48.62,48.62,0,0,1,29.06,9.21A52.59,52.59,0,0,1,1390,487h52.5q-2.37-15-12.68-31.26-30.09-47.49-87.3-47.49-43.35,0-73.14,29.5T1239.59,510q0,43.07,30.08,72.85t73.44,29.79q36,0,63.56-21.24t35.83-56H1390q-15.91,32.73-47.48,32.74-22.41,0-37.6-16.73Z" transform="translate(-237.16 -180.65)"/><path class="cls-1" d="M824.34,377.81q12.67-3.39,23.89-13.72,18-16.8,18-42.47,0-34.78-32.44-45.71,22.71-13.28,22.71-39.81,0-25.95-18.58-40.7-7.68-6.19-19.61-8.56t-36.43-2.36H721.41V381.2h62.23q28,0,40.7-3.39ZM787.18,229q21.24,0,21.24,14.9,0,15.48-21.24,15.48H769.49V229Zm5.9,72.25q25.06,0,25.07,17,0,18.42-25.07,18.43H769.49v-35.4Zm267.64,54.27Q1090.94,326,1091,283t-30.23-72.7q-30.23-29.64-74.17-29.64T913,210.14q-29.65,29.51-29.64,73.14,0,43.07,29.78,72.41T986.55,385q43.94,0,74.17-29.49Zm-35.39-113.63q15.48,16.72,15.48,41.37,0,24.08-15.33,40.64T987.73,340.5q-23.31,0-38.78-16.58T933.46,282.4q0-24.34,15.34-40.78t38.34-16.44q22.71,0,38.19,16.73Zm235.2,112.16q25.37-27.13,25.36-72,0-35.67-18-60.75A81.89,81.89,0,0,0,1244,198.64q-22.71-14.16-61.93-14.16H1116V381.2h77.27q41.87,0,67.24-27.13ZM1188,229q23,0,35.39,14.22t12.39,40.33q0,53.1-48.08,53.1h-21.53V229Zm204.68,80.51,58.39-125h-54l-29.49,79-29.2-79h-54.56l58.69,125V381.2h50.14V309.53Z" transform="translate(-237.16 -180.65)"/><path class="cls-1" d="M1484.55,795.48q0,17,9.91,28.86t24.34,11.83q14.6,0,24-11.69a60,60,0,0,0,8.17-14l5.56-13.43q5.06-12.37,12.52-12.39A10.6,10.6,0,0,1,1577,788a11.38,11.38,0,0,1,3.22,8.23,10.52,10.52,0,0,1-4.26,8.85q-4.26,3.24-11.39,3.24v29.73h3.83q16.86,0,26.77-11.3T1605,796q0-19.12-9.39-29.82t-26.08-10.69q-11.46,0-19.12,6.17t-14.26,20.78l-6.43,14.25q-4.51,9.91-11.47,9.91a8,8,0,0,1-6.26-3,10.74,10.74,0,0,1-2.61-7.22q0-9,11.13-10.6V756.37a52.74,52.74,0,0,0-13.13,2.08,31.47,31.47,0,0,0-9.65,5.74q-13.21,10.95-13.21,31.29Zm28.51-98.22v-23h-26.25v75.45h26.25v-23h89.71V697.26Zm65.28-35.21a37.67,37.67,0,0,0,14.35-9.13q12.35-12.17,12.34-33,0-20.68-12.52-32.86-11.82-11.47-35.46-11.48h-70.24v29.56h70.1q12.16,0,17,3.3t4.86,11.48q0,15.12-21.87,15.12h-70.1v29.56h70.24q13.73,0,21.29-2.52Zm8.44-190.29q-16-15-42.43-14.95-21,0-35.81,10.6a48.53,48.53,0,0,0-13.39,14.09q-8.34,13.38-8.34,36.51V557h116V511.4q0-24.69-16-39.64Zm-73.72,42.77q0-13.56,8.39-20.86t23.77-7.31q31.3,0,31.3,28.34v12.7h-63.46V514.53ZM1486.81,412.3v29.56h116V412.3ZM1587.65,293q-17.39-17.82-42.77-17.82T1502,293q-17.48,17.82-17.47,43.72t17.38,43.38q17.38,17.47,43.12,17.48,25.4,0,42.68-17.56t17.3-43.3q0-25.89-17.38-43.72Zm-67,20.86q9.85-9.12,24.39-9.12,14.19,0,24,9a29.14,29.14,0,0,1,9.77,22.25,30,30,0,0,1-9.77,22.86q-9.78,9.14-24.48,9.13-14.35,0-24-9a30.92,30.92,0,0,1,.17-45.12Zm-36.11-88.75q0,17,9.91,28.86t24.34,11.82q14.6,0,24-11.69a60,60,0,0,0,8.17-14l5.56-13.43q5.06-12.39,12.52-12.39a10.56,10.56,0,0,1,7.91,3.33,11.36,11.36,0,0,1,3.22,8.23,10.52,10.52,0,0,1-4.26,8.85q-4.26,3.24-11.39,3.24v29.73h3.83q16.86,0,26.77-11.3t9.91-30.78q0-19.12-9.39-29.81t-26.08-10.7q-11.46,0-19.12,6.17T1536.18,212l-6.43,14.26q-4.51,9.9-11.47,9.91a8,8,0,0,1-6.26-3.05,10.7,10.7,0,0,1-2.61-7.21q0-9,11.13-10.61V185.94a53.14,53.14,0,0,0-13.13,2.09,31.07,31.07,0,0,0-9.65,5.74q-13.21,10.95-13.21,31.29Z" transform="translate(-237.16 -180.65)"/><line class="cls-2" x1="830.64" y1="14.86" x2="661.77" y2="182.04"/><line class="cls-3" x1="1382.09" y1="101.2" x2="1230.1" y2="214.54"/></svg>