<svg xmlns="http://www.w3.org/2000/svg" xmlns:xlink="http://www.w3.org/1999/xlink" viewBox="0 0 293.97 389.37"><defs><clipPath id="a" transform="translate(-4.5 -54.44)"/></defs><g clip-path="url(#a)"><path d="M181.08,66.16a4.06,4.06,0,0,0,3.31-1.61,8.61,8.61,0,0,0,1.13-1.92l.76-1.85c.47-1.14,1-1.71,1.73-1.71a1.45,1.45,0,0,1,1.09.46,1.57,1.57,0,0,1,.44,1.13,1.45,1.45,0,0,1-.59,1.22,2.5,2.5,0,0,1-1.57.45v4.09h.53a4.65,4.65,0,0,0,3.69-1.55A6.21,6.21,0,0,0,193,60.63a6,6,0,0,0-1.29-4.11,4.53,4.53,0,0,0-3.59-1.47,4.06,4.06,0,0,0-2.64.85,7.75,7.75,0,0,0-2,2.86l-.89,2c-.41.91-.94,1.37-1.58,1.37a1.1,1.1,0,0,1-.86-.42,1.48,1.48,0,0,1-.36-1c0-.83.51-1.31,1.53-1.46v-4a7.24,7.24,0,0,0-1.81.28,4.47,4.47,0,0,0-1.32.79,5.29,5.29,0,0,0-1.83,4.32,6,6,0,0,0,1.37,4A4.21,4.21,0,0,0,181.08,66.16ZM73.5,114A14,14,0,0,0,82.26,111a13.33,13.33,0,0,0,4.93-7.72H80q-2.19,4.52-6.54,4.51a6.69,6.69,0,0,1-5.18-2.3,8.16,8.16,0,0,1-2.1-5.7,8,8,0,0,1,2.08-5.62,7,7,0,0,1,9.16-1A7.26,7.26,0,0,1,80,96.64h7.23a11.41,11.41,0,0,0-1.74-4.31,13.4,13.4,0,0,0-12-6.54,13.78,13.78,0,0,0-10.08,4.06,14.18,14.18,0,0,0,0,20A13.83,13.83,0,0,0,73.5,114Zm-69-.53h15v-6.14H11.13v-4.55h8.16V96.6H11.13V92.45h8.41V86.32H4.5Zm26-27.1H23.56v27.1H38.47v-6.14h-8Zm25.88,21H47.94v-4.55h8.17V96.6H47.94V92.45h8.41V86.32h-15v27.1h15Zm75.9,6.14h6.91V86.32h-6.91ZM107.75,82.6A14.08,14.08,0,0,0,118,78.53a14.09,14.09,0,0,0,0-20,14,14,0,0,0-10.22-4.08A13.82,13.82,0,0,0,97.61,58.5a13.66,13.66,0,0,0-4.08,10.08,13.46,13.46,0,0,0,4.1,10A13.85,13.85,0,0,0,107.75,82.6Zm-5.2-19.76a7.22,7.22,0,0,1,10.55,0,8.59,8.59,0,0,1,0,11.3,6.83,6.83,0,0,1-5.2,2.28,7,7,0,0,1-5.35-2.28,8.08,8.08,0,0,1-2.13-5.72A7.91,7.91,0,0,1,102.55,62.84ZM85.4,81.6a7.82,7.82,0,0,0,3.3-1.89,7.65,7.65,0,0,0,2.47-5.85,6.06,6.06,0,0,0-4.47-6.3,6,6,0,0,0,3.13-5.48,6.75,6.75,0,0,0-2.56-5.61,6.09,6.09,0,0,0-2.7-1.18,27.84,27.84,0,0,0-5-.33H71.22V82.07H79.8A23.91,23.91,0,0,0,85.4,81.6ZM77.85,61.1h2.43c2,0,2.93.68,2.93,2s-1,2.14-2.93,2.14H77.85Zm0,10H81.1c2.3,0,3.45.77,3.45,2.33s-1.15,2.54-3.45,2.54H77.85Zm67.65,7.27q3.5-3.73,3.5-9.92A14,14,0,0,0,146.52,60a11.2,11.2,0,0,0-3.29-3.12q-3.14-2-8.54-2h-9.1V82.07h10.65A12.09,12.09,0,0,0,145.5,78.33Zm-13-2.4V61.1h3a6.11,6.11,0,0,1,4.88,2,8.2,8.2,0,0,1,1.71,5.56q0,7.3-6.63,7.31Zm-32,37.49v-21h5.36V86.32H88.25v6.13h5.36v21Zm84.16-46a8,8,0,0,0-5.91,2.46,8.29,8.29,0,0,0-2.41,6,8.22,8.22,0,0,0,8.34,8.39,7.94,7.94,0,0,0,5.88-2.42,8.17,8.17,0,0,0,2.38-6,8.27,8.27,0,0,0-2.39-6A7.9,7.9,0,0,0,184.68,67.45ZM188,79a4.74,4.74,0,0,1-3.37,1.25A4.66,4.66,0,0,1,181.32,79a4.26,4.26,0,0,1,0-6.22,4.76,4.76,0,0,1,3.36-1.25,4.69,4.69,0,0,1,3.3,1.24,4,4,0,0,1,1.35,3.07A4.13,4.13,0,0,1,188,79Zm-1.65,29.85h-9.67v4.08h9.66a4.44,4.44,0,0,1,2.34.45,1.79,1.79,0,0,1,.67,1.58c0,1.39-1,2.09-3,2.09h-9.66v4.07h9.67a9.75,9.75,0,0,0,2.94-.35,5.15,5.15,0,0,0,2-1.26A6.06,6.06,0,0,0,193,115a6,6,0,0,0-1.72-4.52A6.74,6.74,0,0,0,186.35,108.84Zm-9.67,13.61v10.4h3.61v-3.17h12.36v-4.07H180.29v-3.16Zm-16.43-56.6-4-10.89h-7.52l8.09,17.23v9.88h6.9V72.19L171.75,55h-7.44Zm27.83,67.79a4.06,4.06,0,0,0-2.64.85,7.75,7.75,0,0,0-2,2.86l-.89,2c-.41.91-.94,1.37-1.58,1.37a1.1,1.1,0,0,1-.86-.42,1.47,1.47,0,0,1-.36-1q0-1.25,1.53-1.47v-4a7.24,7.24,0,0,0-1.81.28,4.47,4.47,0,0,0-1.32.79,5.29,5.29,0,0,0-1.83,4.32,6,6,0,0,0,1.37,4,4.21,4.21,0,0,0,3.35,1.63,4.06,4.06,0,0,0,3.31-1.61,8.61,8.61,0,0,0,1.13-1.92l.76-1.85c.47-1.14,1-1.71,1.73-1.71a1.45,1.45,0,0,1,1.09.46,1.59,1.59,0,0,1,.44,1.13,1.45,1.45,0,0,1-.59,1.22,2.5,2.5,0,0,1-1.57.45V145h.53a4.65,4.65,0,0,0,3.69-1.55,6.21,6.21,0,0,0,1.36-4.24,6,6,0,0,0-1.29-4.11A4.53,4.53,0,0,0,188.08,133.64Zm4.57-47.29h-16v4.07h16Zm-127.6,36.4a11.37,11.37,0,0,0-3.29-3.13c-2.09-1.3-4.93-2-8.54-2h-9.1v27.1H54.77A12.09,12.09,0,0,0,64,141a15.61,15.61,0,0,0,1-18.29ZM54,138.64H51V123.81h3a6.1,6.1,0,0,1,4.87,2,8.17,8.17,0,0,1,1.71,5.55Q60.62,138.64,54,138.64Zm122.68-32.36h16V100a7.14,7.14,0,0,0-2.2-5.47A9.18,9.18,0,0,0,179.67,94a6.52,6.52,0,0,0-1.84,1.94,9.41,9.41,0,0,0-1.15,5Zm3.61-5.84a3.61,3.61,0,0,1,1.16-2.88,4.83,4.83,0,0,1,3.27-1q4.32,0,4.32,3.9v1.75h-8.75Zm-58.36,3.76a7.76,7.76,0,0,0,4.92-2.83,8.81,8.81,0,0,0,1.83-5.67,9.16,9.16,0,0,0-3.33-7.43,7.36,7.36,0,0,0-3.11-1.55,25.19,25.19,0,0,0-5.22-.4h-8.58v27.1h6.63v-8.78l6.29,8.78h7.93Zm-4.43-4.27h-2.43V92.45h2.52q4.43,0,4.43,3.68T117.5,99.93Zm-4.22,34.81-10.57-17.07H96.78v27.1h6.63l-.29-16.45,10.48,16.45h6v-27.1H113Zm-34.9-17.07-10.85,27.1H75l1.42-3.94h9.43l1.3,3.94h7.52l-10.77-27.1Zm-.09,17.68,2.85-9.27,2.8,9.27Zm78.47-43.42a6.72,6.72,0,0,1,4,1.26,7.26,7.26,0,0,1,2.58,3.45h7.23a11.44,11.44,0,0,0-1.75-4.31,13.37,13.37,0,0,0-12-6.54,13.76,13.76,0,0,0-10.08,4.06,14.18,14.18,0,0,0,0,20A14.52,14.52,0,0,0,165.63,111a13.29,13.29,0,0,0,4.94-7.72h-7.23q-2.19,4.52-6.54,4.51a6.69,6.69,0,0,1-5.18-2.3,8.16,8.16,0,0,1-2.1-5.7,8,8,0,0,1,2.08-5.62A6.7,6.7,0,0,1,156.76,91.93Zm-2.16,52.84h15v-6.13h-8.41v-4.55h8.16V128h-8.16v-4.14h8.41v-6.14h-15Zm-16.9-21.49a6.66,6.66,0,0,1,4,1.27,7.18,7.18,0,0,1,2.58,3.44h7.23a11.24,11.24,0,0,0-1.74-4.31,13.39,13.39,0,0,0-12-6.54,13.79,13.79,0,0,0-10.08,4.07,14.18,14.18,0,0,0,0,20,14.57,14.57,0,0,0,18.88,1.18,13.31,13.31,0,0,0,4.93-7.72h-7.23c-1.46,3-3.64,4.51-6.54,4.51a6.7,6.7,0,0,1-5.18-2.31,8.12,8.12,0,0,1-2.09-5.7,8,8,0,0,1,2.07-5.62A6.7,6.7,0,0,1,137.7,123.28Z" transform="translate(-4.5 -54.44)" fill="#fff"/></g><rect x="144.33" y="222.14" width="149.64" height="167.23"/></svg>