<?xml version="1.0" encoding="iso-8859-1"?>
<!-- Generator: Adobe Illustrator 25.4.1, SVG Export Plug-In . SVG Version: 6.00 Build 0)  -->
<svg version="1.1" id="Layer_1" xmlns="http://www.w3.org/2000/svg" xmlns:xlink="http://www.w3.org/1999/xlink" x="0px" y="0px"
	 viewBox="0 0 1920 1080" style="enable-background:new 0 0 1920 1080;" xml:space="preserve">
<g>
	<polygon style="display:none;fill-rule:evenodd;clip-rule:evenodd;fill:#FFFFFF;" points="401.159,158 401.159,1910 1591.95,1910 
		1591.95,158 401.159,158 	"/>
	<path style="fill:#FFFFFF;" d="M669.219,809.195c16.906-18.087,25.362-42.072,25.362-71.96c0-23.787-5.999-44.041-17.989-60.755
		c-6.688-9.437-14.651-17.004-23.89-22.709c-15.142-9.437-35.787-14.157-61.934-14.157h-66.062v196.714h77.27
		C629.892,836.328,652.307,827.287,669.219,809.195L669.219,809.195z M596.667,684.148c15.336,0,27.133,4.742,35.391,14.225
		s12.386,22.929,12.386,40.331c0,35.395-16.027,53.091-48.071,53.091h-21.53V684.148H596.667L596.667,684.148z M891.298,836.328
		l-78.155-196.714h-39.815l-78.747,196.714h53.971l10.322-28.607h68.422l9.44,28.607H891.298L891.298,836.328z M813.732,767.906
		h-40.994l20.645-67.243L813.732,767.906L813.732,767.906z M952.934,716.884l76.089,119.444h43.649V639.614h-48.073l2.066,123.868
		l-76.68-123.868h-43.06v196.714h48.073L952.934,716.884L952.934,716.884z M1166.599,778.906
		c-10.129-11.153-15.188-24.943-15.188-41.378c0-16.23,5.013-29.822,15.042-40.782c10.027-10.953,22.511-16.432,37.455-16.432
		c10.809,0,20.497,3.074,29.049,9.212c8.554,6.142,14.794,14.475,18.728,25h52.497c-1.577-10.029-5.803-20.447-12.682-31.263
		c-20.055-31.654-49.156-47.484-87.298-47.484c-28.901,0-53.285,9.835-73.139,29.492c-19.862,19.664-29.788,43.752-29.788,72.256
		c0,28.71,10.026,52.991,30.082,72.848c20.055,19.859,44.534,29.786,73.437,29.786c23.985,0,45.17-7.077,63.554-21.234
		c18.383-14.157,30.328-32.833,35.835-56.035h-52.497c-10.618,21.823-26.447,32.737-47.484,32.737
		C1189.258,795.63,1176.724,790.057,1166.599,778.906L1166.599,778.906z M1435.715,791.796h-61.049v-33.031h59.281V714.23h-59.281
		v-30.082h61.049v-44.535h-109.122v196.714h109.122V791.796L1435.715,791.796z"/>
	<path style="fill:#FFFFFF;" d="M346.28,564.231h-61.049V531.2h59.278v-44.534h-59.278v-30.082h61.049v-44.535H237.158v196.714
		H346.28V564.231L346.28,564.231z M483.713,564.231h-58.1V412.049h-50.137v196.714h108.237V564.231L483.713,564.231z
		 M613.477,564.231h-61.049V531.2h59.281v-44.534h-59.281v-30.082h61.049v-44.535H504.355v196.714h109.122V564.231L613.477,564.231z
		 M699.743,551.342c-10.129-11.153-15.19-24.944-15.19-41.378c0-16.23,5.013-29.822,15.042-40.782
		c10.027-10.953,22.511-16.432,37.455-16.432c10.812,0,20.497,3.074,29.051,9.212c8.552,6.142,14.792,14.475,18.726,25h52.497
		c-1.577-10.029-5.803-20.447-12.682-31.263c-20.055-31.654-49.156-47.484-87.296-47.484c-28.903,0-53.287,9.835-73.142,29.492
		c-19.862,19.664-29.788,43.752-29.788,72.256c0,28.71,10.029,52.991,30.082,72.848c20.055,19.86,44.534,29.786,73.437,29.786
		c23.985,0,45.169-7.077,63.557-21.234c18.38-14.157,30.325-32.833,35.832-56.036h-52.497
		c-10.616,21.824-26.445,32.737-47.481,32.737C722.399,568.065,709.865,562.492,699.743,551.342L699.743,551.342z M934.057,456.583
		h38.929v-44.535H844.991v44.535h38.93v152.179h50.137V456.583L934.057,456.583z M1039.636,545.061l45.713,63.702h57.51
		l-53.38-66.947c14.94-2.553,26.837-9.387,35.685-20.497c8.848-11.105,13.271-24.82,13.271-41.141
		c0-22.609-8.062-40.598-24.183-53.972c-6.488-5.503-14.009-9.239-22.561-11.208c-8.554-1.961-21.188-2.949-37.899-2.949h-62.228
		v196.714h48.071V545.061L1039.636,545.061z M1057.923,456.583c21.427,0,32.146,8.898,32.146,26.696
		c0,18.38-10.912,27.569-32.738,27.569h-17.695v-54.265H1057.923L1057.923,456.583z M1214.527,412.049h-50.137v196.714h50.137
		V412.049L1214.527,412.049z M1304.918,551.342c-10.129-11.153-15.188-24.944-15.188-41.378c0-16.23,5.013-29.822,15.04-40.782
		c10.029-10.953,22.511-16.432,37.455-16.432c10.812,0,20.499,3.074,29.051,9.212c8.552,6.142,14.792,14.475,18.729,25h52.495
		c-1.575-10.029-5.801-20.447-12.68-31.263c-20.055-31.654-49.156-47.484-87.298-47.484c-28.903,0-53.284,9.835-73.142,29.492
		c-19.862,19.664-29.786,43.752-29.786,72.256c0,28.71,10.027,52.991,30.082,72.848c20.055,19.86,44.532,29.786,73.435,29.786
		c23.985,0,45.169-7.077,63.557-21.234c18.383-14.157,30.328-32.833,35.833-56.036h-52.495
		c-10.618,21.824-26.448,32.737-47.484,32.737C1327.576,568.065,1315.042,562.492,1304.918,551.342L1304.918,551.342z"/>
	<path style="fill:#FFFFFF;" d="M824.341,377.807c8.452-2.257,16.414-6.829,23.89-13.713c11.991-11.208,17.991-25.365,17.991-42.47
		c0-23.197-10.816-38.436-32.444-45.713c15.14-8.848,22.711-22.119,22.711-39.815c0-17.299-6.194-30.866-18.581-40.7
		c-5.116-4.129-11.649-6.977-19.612-8.553c-7.965-1.571-20.108-2.359-36.424-2.359h-60.46v196.713h62.23
		C802.32,381.198,815.885,380.069,824.341,377.807L824.341,377.807z M787.182,229.018c14.157,0,21.234,4.968,21.234,14.898
		c0,10.322-7.077,15.479-21.234,15.479h-17.696v-30.377H787.182L787.182,229.018z M793.081,301.274
		c16.708,0,25.069,5.655,25.069,16.963c0,12.286-8.361,18.428-25.069,18.428h-23.594v-35.391H793.081L793.081,301.274z
		 M1060.722,355.54c20.151-19.657,30.229-43.843,30.229-72.551c0-28.704-10.079-52.939-30.229-72.699
		c-20.156-19.76-44.878-29.64-74.173-29.64c-29.299,0-53.824,9.834-73.583,29.492c-19.762,19.663-29.641,44.045-29.641,73.141
		c0,28.709,9.927,52.842,29.786,72.404c19.857,19.566,44.337,29.345,73.438,29.345
		C1015.844,385.032,1040.567,375.204,1060.722,355.54L1060.722,355.54z M1025.331,241.912c10.322,11.152,15.483,24.94,15.483,41.372
		c0,16.041-5.116,29.59-15.336,40.64c-10.227,11.051-22.811,16.576-37.751,16.576c-15.534,0-28.459-5.525-38.782-16.576
		c-10.322-11.05-15.483-24.894-15.483-41.525c0-16.23,5.109-29.824,15.335-40.783c10.22-10.954,23.005-16.433,38.34-16.433
		C1002.277,225.184,1015.009,230.76,1025.331,241.912L1025.331,241.912z M1260.529,354.065
		c16.908-18.087,25.364-42.072,25.364-71.961c0-23.787-6.001-44.04-17.991-60.754c-6.686-9.437-14.648-17.004-23.887-22.709
		c-15.142-9.438-35.787-14.156-61.934-14.156h-66.064v196.713h77.272C1221.203,381.198,1243.618,372.157,1260.529,354.065
		L1260.529,354.065z M1187.979,229.018c15.336,0,27.133,4.742,35.391,14.226c8.258,9.483,12.386,22.93,12.386,40.331
		c0,35.396-16.027,53.091-48.073,53.091h-21.53V229.018H1187.979L1187.979,229.018z M1392.655,309.533l58.395-125.049h-53.971
		l-29.493,79.04l-29.196-79.04h-54.561l58.689,125.049v71.665h50.137V309.533L1392.655,309.533z"/>
	<path style="fill:#FFFFFF;" d="M1484.546,795.485c0,11.36,3.304,20.979,9.91,28.86c6.606,7.885,14.721,11.822,24.34,11.822
		c9.738,0,17.734-3.894,23.992-11.688c3.018-3.718,5.739-8.37,8.172-13.957l5.564-13.433c3.364-8.254,7.537-12.384,12.518-12.384
		c3.129,0,5.766,1.11,7.91,3.327c2.146,2.221,3.218,4.963,3.218,8.231c0,3.739-1.42,6.686-4.26,8.845
		c-2.84,2.164-6.633,3.241-11.387,3.241v29.731h3.823c11.244,0,20.169-3.766,26.775-11.301c6.606-7.533,9.91-17.791,9.91-30.774
		c0-12.748-3.131-22.688-9.389-29.818c-6.258-7.127-14.951-10.691-26.079-10.691c-7.648,0-14.023,2.06-19.125,6.172
		c-5.1,4.117-9.849,11.039-14.257,20.777l-6.431,14.257c-3.013,6.606-6.839,9.908-11.476,9.908c-2.433,0-4.52-1.013-6.258-3.043
		c-1.739-2.025-2.608-4.433-2.608-7.214c0-6.026,3.709-9.562,11.126-10.607v-29.381c-5.678,0.348-10.054,1.042-13.126,2.087
		c-3.07,1.042-6.285,2.954-9.649,5.737C1488.954,771.492,1484.546,781.924,1484.546,795.485L1484.546,795.485L1484.546,795.485z
		 M1513.06,697.256v-22.95h-26.252v75.454h26.252v-22.948h89.713v-29.556H1513.06L1513.06,697.256z M1578.344,662.05
		c5.043-1.677,9.824-4.72,14.343-9.128c8.231-8.11,12.345-19.125,12.345-33.033c0-13.79-4.173-24.745-12.518-32.858
		c-7.881-7.651-19.703-11.476-35.468-11.476h-70.238v29.556h70.106c8.101,0,13.77,1.104,17.008,3.304
		c3.238,2.203,4.856,6.028,4.856,11.474c0,10.083-7.289,15.126-21.864,15.126h-70.106v29.556h70.238
		C1566.203,664.571,1573.303,663.731,1578.344,662.05L1578.344,662.05z M1586.777,471.762
		c-10.664-9.967-24.802-14.953-42.423-14.953c-14.022,0-25.963,3.536-35.814,10.604c-5.564,3.944-10.025,8.636-13.388,14.084
		c-5.564,8.927-8.345,21.098-8.345,36.51v38.945h115.965v-45.552C1602.773,494.944,1597.441,481.732,1586.777,471.762
		L1586.777,471.762z M1513.06,514.531c0-9.041,2.795-15.996,8.386-20.863c5.591-4.868,13.517-7.303,23.776-7.303
		c20.865,0,31.297,9.449,31.297,28.339v12.694h-63.459V514.531L1513.06,514.531z M1486.808,412.304v29.556h115.965v-29.556H1486.808
		L1486.808,412.304z M1587.647,292.95c-11.59-11.88-25.847-17.821-42.771-17.821c-16.922,0-31.208,5.941-42.855,17.821
		c-11.649,11.881-17.475,26.457-17.475,43.725c0,17.272,5.798,31.729,17.388,43.378c11.59,11.649,25.963,17.472,43.117,17.472
		c16.924,0,31.149-5.851,42.682-17.559c11.536-11.706,17.3-26.136,17.3-43.292C1605.033,319.407,1599.237,304.832,1587.647,292.95
		L1587.647,292.95z M1520.661,313.814c6.574-6.085,14.703-9.128,24.39-9.128c9.455,0,17.443,3.015,23.956,9.041
		c6.515,6.028,9.772,13.447,9.772,22.253c0,9.157-3.257,16.776-9.772,22.861c-6.513,6.085-14.673,9.128-24.477,9.128
		c-9.569,0-17.582-3.011-24.042-9.039c-6.458-6.026-9.688-13.563-9.688-22.602C1510.8,327.404,1514.086,319.899,1520.661,313.814
		L1520.661,313.814z M1484.546,225.06c0,11.361,3.304,20.98,9.91,28.861c6.606,7.883,14.721,11.822,24.34,11.822
		c9.738,0,17.734-3.895,23.992-11.689c3.018-3.719,5.739-8.37,8.172-13.955l5.564-13.433c3.364-8.256,7.537-12.385,12.518-12.385
		c3.129,0,5.766,1.111,7.91,3.328c2.146,2.219,3.218,4.963,3.218,8.231c0,3.738-1.42,6.685-4.26,8.845
		c-2.84,2.162-6.633,3.241-11.387,3.241v29.73h3.823c11.244,0,20.169-3.765,26.775-11.301c6.606-7.533,9.91-17.791,9.91-30.773
		c0-12.749-3.131-22.689-9.389-29.817c-6.258-7.128-14.951-10.692-26.079-10.692c-7.648,0-14.023,2.059-19.125,6.172
		c-5.1,4.115-9.849,11.04-14.257,20.776l-6.431,14.257c-3.013,6.607-6.839,9.91-11.476,9.91c-2.433,0-4.52-1.013-6.258-3.043
		c-1.739-2.026-2.608-4.433-2.608-7.215c0-6.025,3.709-9.562,11.126-10.605v-29.382c-5.678,0.348-10.054,1.043-13.126,2.086
		c-3.07,1.043-6.285,2.956-9.649,5.737C1488.954,201.068,1484.546,211.499,1484.546,225.06L1484.546,225.06L1484.546,225.06z"/>
	<line style="fill:#FFFFFF;stroke:#FFFFFF;stroke-width:12;" x1="1067.795" y1="195.513" x2="898.923" y2="362.692"/>
	<line style="fill:#FFFFFF;stroke:#FFFFFF;stroke-width:8;" x1="1619.251" y1="281.848" x2="1467.256" y2="395.186"/>
</g>
</svg>
