<svg xmlns="http://www.w3.org/2000/svg" viewBox="0 0 2026.59 2009.48"><rect x="0.5" y="0.5" width="2025.59" height="2008.48" fill="#f40606" stroke="#000" stroke-miterlimit="10"/><path d="M529.93,968.45H489V947.87h39.79V920.13H489V901.39h41V873.65H456.69V996.19h73.24V968.45Zm92.24,0h-39v-94.8H549.52V996.19h72.65V968.45Zm87.09,0h-41V947.87h39.78V920.13H668.29V901.39h41V873.65H636V996.19h73.24V968.45Zm57.9-8Q757,950,757,934.65q0-15.17,10.1-25.41T792.2,899a34.39,34.39,0,0,1,19.49,5.73,33.14,33.14,0,0,1,12.57,15.58H859.5q-1.59-9.37-8.52-19.48-20.19-29.58-58.59-29.58-29.08,0-49.09,18.38t-20,45q0,26.82,20.19,45.37t49.29,18.56q24.15,0,42.66-13.23a60.06,60.06,0,0,0,24-34.9H824.26q-10.68,20.38-31.87,20.39a33.86,33.86,0,0,1-25.23-10.42Zm157.26-59h26.13V873.65H864.64v27.74h26.13v94.8h33.65v-94.8Zm70.86,55.12L1026,996.19h38.6l-35.83-41.7q15-2.38,24-12.77t8.91-25.63q0-21.12-16.23-33.62a36.45,36.45,0,0,0-15.14-7q-8.62-1.83-25.44-1.84H963V996.19h32.26V956.51Zm12.27-55.12q21.57,0,21.58,16.63,0,17.18-22,17.18H995.28V901.39Zm105.11-27.74H1079V996.19h33.65V873.65Zm60.66,86.77q-10.18-10.42-10.19-25.77,0-15.17,10.09-25.41T1198.36,899a34.4,34.4,0,0,1,19.5,5.73,33.14,33.14,0,0,1,12.57,15.58h35.23q-1.58-9.37-8.51-19.48-20.19-29.58-58.59-29.58-29.1,0-49.09,18.38t-20,45q0,26.82,20.19,45.37T1199,998.58q24.13,0,42.65-13.23a60,60,0,0,0,24.05-34.9h-35.23q-10.7,20.38-31.87,20.39a33.89,33.89,0,0,1-25.24-10.42Z" transform="translate(11.8 7.95)" fill="#fff"/></svg>