<svg xmlns="http://www.w3.org/2000/svg" viewBox="0 0 2505.73 2190.83"><path d="M771,919.25Q771,901,744,901H718.69v38H744Q771,939.05,771,919.25Zm-10.46-79.86q0-16-22.81-16h-19V856h19Q760.51,856,760.51,839.39Zm-38.33,563h44.05l-21.87-72.25ZM533,1312.4H509.55v115.67h23.13q51.65,0,51.65-57,0-28-13.31-43.33T533,1312.4Zm1052.81-182.06q0-30.45-33.62-30.45-16.55,0-25.55,7.85t-9,22.42V1144h68.18Zm-557.21-62.45H1009v58.31h19q35.17,0,35.17-29.62Q1063.14,1067.89,1028.6,1067.89ZM1219.68,882q0-28.05-13.31-43.33t-38-15.29h-23.45V939.05H1168Q1219.68,939.05,1219.68,882Zm-266.5,61.17q24.08,0,40.56-17.81t16.48-43.67q0-26.49-16.64-44.45t-41-18q-24.72,0-41.2,17.66t-16.48,43.82q0,26.81,16.64,44.62T953.18,943.17Zm624.56-28.77q-10.48-9.72-25.74-9.72-15.6,0-26.2,9.81a33.22,33.22,0,0,0-.19,48.48q10.41,9.72,25.83,9.71,15.81,0,26.3-9.81a32.18,32.18,0,0,0,10.5-24.56A31.31,31.31,0,0,0,1577.74,914.4ZM-257.78-123.38v2074H2221.41v-2074ZM1091,775.53h71q42.15,0,66.55,15.21a88.09,88.09,0,0,1,25.67,24.4q19.32,26.94,19.33,65.28,0,48.18-27.26,77.32t-72.24,29.15h-83ZM1196.87,1020v211.37H1143V1020Zm-324-216.94q31.85-31.68,79.06-31.69t79.7,31.85q32.48,31.85,32.48,78.11t-32.48,78Q999.12,991,951.91,991,905,991,873,959.48t-32-77.79Q841,834.8,872.85,803.1Zm-73,264.79V1020H937.34v47.85H895.51v163.52H841.64V1067.89ZM667,775.53h65q26.31,0,39.14,2.54t21.07,9.19q20,15.84,20,43.73,0,28.51-24.4,42.78,34.85,11.73,34.86,49.11,0,27.57-19.34,45.64-12,11.09-25.66,14.73t-43.73,3.64H667Zm-61.47,272.08q32-31.68,78.59-31.69,61.47,0,93.8,51,11.09,17.43,13.62,33.59h-56.4a56.52,56.52,0,0,0-20.12-26.86,52.28,52.28,0,0,0-31.22-9.9q-24.08,0-40.24,17.66t-16.16,43.82q0,26.49,16.32,44.46t40.4,18q33.9,0,51-35.18h56.4q-8.87,37.39-38.5,60.21t-68.29,22.82q-46.57,0-78.9-32t-32.32-78.27Q573.56,1079.3,605.56,1047.61ZM264,1067.89H198.37v32.33h63.69v47.85H198.37v35.49H264v47.85H146.72V1020H264Zm147.67,163.52H295.33V1020h53.88v163.52h62.42ZM433.81,1020H551.06v47.85h-65.6v32.33h63.7v47.85h-63.7v35.49h65.6v47.85H433.81ZM538.7,1475.92h-83V1264.55h71q42.14,0,66.55,15.21a88.05,88.05,0,0,1,25.66,24.4q19.33,26.94,19.33,65.28,0,48.18-27.25,77.32T538.7,1475.92Zm252.24,0-10.14-30.74H707.28l-11.09,30.74h-58l84.61-211.37h42.78l84,211.37Zm253.51,0h-46.9l-81.76-128.34L918,1475.92H866.36V1264.55h46.26l82.4,133.1-2.22-133.1h51.65ZM1009,1163v68.45H957.3V1020h66.86q26.94,0,40.72,3.17a56.64,56.64,0,0,1,24.25,12q26,21.55,26,58,0,26.31-14.26,44.21t-38.34,22l57.35,71.94h-61.79Zm136.42,251.26q16.32,18,40.4,18,33.92,0,51-35.18h56.41q-8.88,37.4-38.5,60.21T1186.41,1480q-46.59,0-78.91-32t-32.32-78.27q0-45.94,32-77.64t78.58-31.69q61.49,0,93.8,51,11.09,17.43,13.63,33.59h-56.41a56.57,56.57,0,0,0-20.12-26.86,52.27,52.27,0,0,0-31.21-9.9q-24.09,0-40.25,17.66t-16.16,43.82Q1129.05,1396.25,1145.37,1414.22Zm289.16-101.82h-65.6v32.33h63.7v47.85h-63.7v35.49h65.6v47.85H1317.28V1264.55h117.25ZM1294,1169.71q16.32,18,40.4,18,33.9,0,51-35.18h56.4q-8.86,37.39-38.5,60.21T1335,1235.53q-46.57,0-78.9-32t-32.32-78.27q0-45.95,32-77.64t78.59-31.69q61.47,0,93.8,51,11.08,17.43,13.62,33.59h-56.4a56.52,56.52,0,0,0-20.12-26.86,52.28,52.28,0,0,0-31.22-9.9q-24.08,0-40.24,17.66t-16.16,43.82Q1277.67,1151.74,1294,1169.71Zm94.27-259.82v77h-53.87v-77l-63.06-134.36H1330l31.37,84.93L1393,775.53h58Zm217.54,555.77q-10.63,12.13-28.77,12.14h-4.1v-32c5.1,0,9.18-1.15,12.23-3.48a11.3,11.3,0,0,0,4.58-9.5,12.24,12.24,0,0,0-3.46-8.85,11.36,11.36,0,0,0-8.5-3.57q-8,0-13.45,13.31l-6,14.43a64.21,64.21,0,0,1-8.78,15q-10.08,12.57-25.78,12.56-15.49,0-26.15-12.7T1487,1432q0-21.85,14.2-33.62a33.7,33.7,0,0,1,10.37-6.17,56.69,56.69,0,0,1,14.1-2.24v31.57q-12,1.68-12,11.4a11.53,11.53,0,0,0,2.8,7.75,8.57,8.57,0,0,0,6.72,3.27q7.49,0,12.34-10.65l6.91-15.32q7.1-15.69,15.31-22.32t20.55-6.63q17.94,0,28,11.48t10.09,32Q1616.45,1453.52,1605.8,1465.66Zm8.22-139.17v31.76h-96.39v24.65h-28.21v-81.07h28.21v24.66Zm-10.83-47.64a40.52,40.52,0,0,1-15.41,9.81q-8.13,2.71-22.89,2.71h-75.47v-31.76h75.33q23.49,0,23.49-16.25,0-8.77-5.22-12.33t-18.27-3.55h-75.33v-31.76h75.47q25.41,0,38.11,12.33,13.45,13.08,13.45,35.31Q1616.45,1265.77,1603.19,1278.85Zm-104.8-184.19a52,52,0,0,1,14.38-15.13q15.88-11.38,38.49-11.39,28.4,0,45.58,16.06t17.18,42.59v49h-124.6v-41.85Q1489.42,1109,1498.39,1094.66Zm-9-42.59v-31.75H1614v31.75Zm108.44-66.5q-18.58,18.87-45.86,18.87-27.64,0-46.32-18.78T1487,939.06q0-27.84,18.78-47t46-19.15q27.27,0,46,19.15t18.68,47Q1616.45,966.71,1597.86,985.57Zm7.94-132.82Q1595.17,864.9,1577,864.9h-4.1V833q7.65,0,12.23-3.48a11.3,11.3,0,0,0,4.58-9.5,12.24,12.24,0,0,0-3.46-8.85,11.36,11.36,0,0,0-8.5-3.57q-8,0-13.45,13.3l-6,14.44a64.21,64.21,0,0,1-8.78,15q-10.08,12.57-25.78,12.56-15.49,0-26.15-12.7t-10.65-31q0-21.86,14.2-33.63a33.85,33.85,0,0,1,10.37-6.16,56.69,56.69,0,0,1,14.1-2.24v31.57q-12,1.68-12,11.39a11.53,11.53,0,0,0,2.8,7.76,8.57,8.57,0,0,0,6.72,3.27q7.49,0,12.34-10.65l6.91-15.32q7.1-15.69,15.31-22.32t20.55-6.64q17.94,0,28,11.49t10.09,32Q1616.45,840.62,1605.8,852.75Z" transform="translate(279.01 123.38)"/><rect y="1819.22" width="2505.73" height="371.61"/></svg>