<svg xmlns="http://www.w3.org/2000/svg" viewBox="0 0 2026.59 2009.48"><rect x="0.5" y="0.5" width="2025.59" height="2008.48" fill="#f40606" stroke="#000" stroke-miterlimit="10"/><path d="M850.78,852.32a39,39,0,0,0,16-8.54,33.54,33.54,0,0,0,12.07-26.46q0-21.68-21.77-28.47,15.24-8.26,15.24-24.8,0-16.17-12.47-25.36a31,31,0,0,0-13.16-5.32q-8-1.47-24.45-1.47H781.7V854.43h41.77q18.79,0,27.31-2.11Zm-24.94-92.68q14.25,0,14.25,9.28,0,9.65-14.25,9.64H814V759.64Zm4,45q16.82,0,16.83,10.57,0,11.47-16.83,11.47H814v-22Zm179.63,33.8q20.28-18.36,20.29-45.19T1009.43,748q-20.29-18.47-49.78-18.46t-49.39,18.37q-19.89,18.38-19.89,45.56,0,26.84,20,45.1t49.29,18.28q29.49,0,49.78-18.37Zm-23.75-70.78q10.4,10.43,10.39,25.77a35.19,35.19,0,0,1-35.63,35.64q-15.65,0-26-10.32T924,792.89q0-15.17,10.29-25.4T960,757.25a34.79,34.79,0,0,1,25.64,10.42Zm157.85,69.86q17-16.89,17-44.82,0-22.23-12.08-37.85a53.44,53.44,0,0,0-16-14.14q-15.24-8.82-41.57-8.82h-44.34V854.43h51.86q28.11,0,45.13-16.9Zm-48.69-77.89q15.44,0,23.75,8.86t8.32,25.12q0,33.07-32.27,33.07h-14.45V759.64Zm137.37,50.15,39.19-77.89h-36.22l-19.8,49.23-19.59-49.23h-36.62l39.39,77.89v44.64h33.65V809.79Z" transform="translate(11.8 7.95)" fill="#fff"/></svg>