<svg xmlns="http://www.w3.org/2000/svg" viewBox="0 0 2026.59 2009.48"><rect x="0.5" y="0.5" width="2025.59" height="2008.48" fill="#f40606" stroke="#000" stroke-miterlimit="10"/><path d="M746.67,1121q17-16.89,17-44.82,0-22.23-12.07-37.85a53.44,53.44,0,0,0-16-14.14q-15.26-8.82-41.57-8.82H649.68V1138h51.86q28.11,0,45.13-16.91ZM698,1043.15q15.43,0,23.75,8.86t8.31,25.12q0,33.07-32.26,33.08H683.33v-67.06ZM895.72,1138l-52.45-122.54H816.54L763.69,1138h36.23l6.92-17.82h45.93L859.1,1138Zm-52.06-42.63H816.15L830,1053.44l13.66,41.88Zm93.43-31.78L988.15,1138h29.3V1015.41H985.19l1.38,77.16-51.46-77.16h-28.9V1138h32.26l-1.38-74.41Zm143.4,38.64q-10.2-10.42-10.19-25.78,0-15.17,10.09-25.4t25.14-10.24a34.41,34.41,0,0,1,19.5,5.74,33.16,33.16,0,0,1,12.57,15.57h35.23q-1.59-9.36-8.51-19.47-20.19-29.58-58.59-29.58-29.1,0-49.09,18.37t-20,45q0,26.83,20.19,45.38t49.28,18.55q24.15,0,42.66-13.22a60,60,0,0,0,24-34.91H1137.6q-10.69,20.4-31.87,20.39a33.92,33.92,0,0,1-25.24-10.41Zm180.62,8h-41v-20.58h39.78v-27.74h-39.78v-18.74h41v-27.74h-73.24V1138h73.24v-27.74Z" transform="translate(11.8 7.95)" fill="#fff"/></svg>