<svg xmlns="http://www.w3.org/2000/svg" viewBox="0 0 2026.59 2009.48"><rect x="0.5" y="0.5" width="2025.59" height="2008.48" fill="#f40606" stroke="#000" stroke-miterlimit="10"/><path d="M1293.88,1112.5a25.87,25.87,0,0,0,6.65,18,21.18,21.18,0,0,0,16.34,7.37,20.34,20.34,0,0,0,16.1-7.28,37.24,37.24,0,0,0,5.49-8.7l3.73-8.37q3.39-7.71,8.4-7.71a7.38,7.38,0,0,1,5.31,2.07,6.83,6.83,0,0,1,2.16,5.13,6.39,6.39,0,0,1-2.86,5.51,13,13,0,0,1-7.64,2V1139h2.57q11.31,0,18-7t6.65-19.17q0-11.91-6.3-18.58t-17.51-6.66a20.82,20.82,0,0,0-12.83,3.85q-5.14,3.84-9.57,12.94l-4.32,8.88q-3,6.18-7.7,6.17a5.53,5.53,0,0,1-4.2-1.89,6.38,6.38,0,0,1-1.75-4.49q0-5.64,7.47-6.61v-18.3a37.65,37.65,0,0,0-8.81,1.3,21.53,21.53,0,0,0-6.48,3.57q-8.87,6.83-8.87,19.49Zm19.14-61.18V1037H1295.4v47H1313v-14.29h60.21v-18.41Zm43.82-21.94a25.61,25.61,0,0,0,9.62-5.68q8.3-7.58,8.29-20.58t-8.4-20.47q-7.93-7.14-23.81-7.15H1295.4v18.42h47q8.16,0,11.42,2.05t3.26,7.15q0,9.42-14.68,9.42h-47V1031h47.14q9.23,0,14.3-1.57Zm5.66-118.53q-10.74-9.32-28.48-9.32-14.12,0-24,6.61a31.24,31.24,0,0,0-9,8.77q-5.6,8.34-5.6,22.75v24.26h77.83V935.54q0-15.37-10.73-24.69ZM1313,937.49q0-8.44,5.63-13t16-4.54q21,0,21,17.65v7.91H1313v-8Zm-17.62-63.68v18.41h77.83V873.81Zm67.68-74.35q-11.67-11.1-28.71-11.1t-28.76,11.1a36,36,0,0,0-11.73,27.24,35.44,35.44,0,0,0,11.67,27q11.67,10.89,28.94,10.89,17,0,28.65-10.94a35.58,35.58,0,0,0,11.61-27,36.13,36.13,0,0,0-11.67-27.24Zm-45,13a24.25,24.25,0,0,1,16.37-5.69,23.8,23.8,0,0,1,16.08,5.64,17.57,17.57,0,0,1,6.56,13.86,18.08,18.08,0,0,1-6.56,14.24q-6.55,5.68-16.43,5.68-9.63,0-16.13-5.63a18.32,18.32,0,0,1,.11-28.1Zm-24.24-55.29a25.87,25.87,0,0,0,6.65,18,21.18,21.18,0,0,0,16.34,7.37,20.32,20.32,0,0,0,16.1-7.29,37,37,0,0,0,5.49-8.69l3.73-8.37q3.39-7.71,8.4-7.71a7.38,7.38,0,0,1,5.31,2.07,6.82,6.82,0,0,1,2.16,5.13,6.39,6.39,0,0,1-2.86,5.51,13,13,0,0,1-7.64,2v18.52h2.57q11.31,0,18-7t6.65-19.17q0-11.91-6.3-18.58t-17.51-6.66a20.82,20.82,0,0,0-12.83,3.85q-5.14,3.84-9.57,12.94l-4.32,8.88q-3,6.18-7.7,6.17a5.53,5.53,0,0,1-4.2-1.89,6.38,6.38,0,0,1-1.75-4.5q0-5.62,7.47-6.6v-18.3a38.28,38.28,0,0,0-8.81,1.29,21.58,21.58,0,0,0-6.48,3.58q-8.87,6.83-8.87,19.49Z" transform="translate(11.8 7.95)" fill="#fff"/></svg>