<svg xmlns="http://www.w3.org/2000/svg" viewBox="0 0 2379.72 2104.78"><path d="M822.22,1034H815.8v31.7h6.34q14.15,0,14.15-15.63c0-5.13-1.21-9.08-3.64-11.88S826.74,1034,822.22,1034Zm65.23-107.75q0-5-7.39-5h-6.94v10.42h6.94Q887.44,931.69,887.45,926.27Zm-13.38,132.42h12.08l-6-19.8Zm10.51-154.31c0-2.92-2.08-4.39-6.25-4.39h-5.21v9h5.21Q884.59,908.94,884.58,904.38Zm52.81,28.44a14.53,14.53,0,0,0,11.11-4.88A17,17,0,0,0,953,916a17.27,17.27,0,0,0-4.56-12.18,15.46,15.46,0,0,0-22.54-.09,16.94,16.94,0,0,0-4.52,12A17.21,17.21,0,0,0,926,927.94,15,15,0,0,0,937.39,932.82ZM958.06,967h-5.39v16h5.21q9.64,0,9.64-8.12Q967.52,967,958.06,967Zm52.37-51q0-7.68-3.65-11.88T996.36,900h-6.43v31.7h6.34Q1010.43,931.69,1010.43,916.06Zm91.08,6.22a10.13,10.13,0,0,0-7.18,2.69,9.09,9.09,0,0,0-.06,13.28,10,10,0,0,0,7.08,2.66,10.14,10.14,0,0,0,7.21-2.68,8.85,8.85,0,0,0,2.88-6.74,8.58,8.58,0,0,0-2.88-6.55A10,10,0,0,0,1101.51,922.28Zm9.27,61.84q0-8.34-9.22-8.34c-3,0-5.36.72-7,2.15a7.69,7.69,0,0,0-2.47,6.14v3.79h18.69ZM605.49,640.51v568.43H1285V640.51ZM975.16,886.88h19.46q11.55,0,18.24,4.17a24.13,24.13,0,0,1,7,6.69q5.29,7.38,5.3,17.89,0,13.2-7.47,21.19t-19.8,8H975.16Zm29,67v57.93H989.41V953.89Zm-88.8-59.45A29.5,29.5,0,0,1,937,885.75a30,30,0,0,1,21.84,8.73,30.14,30.14,0,0,1,0,42.77A30.08,30.08,0,0,1,937,945.94a29.63,29.63,0,0,1-21.63-8.64A28.75,28.75,0,0,1,906.64,916,29.16,29.16,0,0,1,915.37,894.44Zm-20,72.57V953.89H933V967H921.58v44.81H906.81V967ZM859,886.88h17.8a60.8,60.8,0,0,1,10.73.69,13.27,13.27,0,0,1,5.78,2.52q5.46,4.35,5.47,12a12.72,12.72,0,0,1-6.69,11.72q9.56,3.23,9.55,13.47a16.38,16.38,0,0,1-5.29,12.5,16.76,16.76,0,0,1-7,4q-3.74,1-12,1H859Zm-16.85,74.57a29.44,29.44,0,0,1,21.54-8.68q16.85,0,25.71,14a24.34,24.34,0,0,1,3.73,9.2H877.63a15.53,15.53,0,0,0-5.51-7.36,14.94,14.94,0,0,0-19.59,2.13,17.14,17.14,0,0,0-4.43,12,17.4,17.4,0,0,0,4.48,12.18,14.33,14.33,0,0,0,11.07,4.93q9.3,0,14-9.64h15.46a28.5,28.5,0,0,1-10.55,16.5,31.09,31.09,0,0,1-40.34-2.52,30.3,30.3,0,0,1-.09-42.73ZM748.49,967h-18v8.86H748V989H730.51v9.73h18v13.11H716.35V953.89h32.14ZM789,1011.82H757.09V953.89h14.76v44.82H789ZM795,953.89h32.13V967h-18v8.86h17.45V989H809.2v9.73h18v13.11H795Zm28.75,124.95H801v-57.93h19.46q11.55,0,18.23,4.17a24,24,0,0,1,7,6.69q5.29,7.38,5.3,17.89,0,13.2-7.47,21.19T823.79,1078.84Zm69.13,0-2.78-8.43H870l-3,8.43H851.06l23.19-57.93H886l23,57.93Zm69.48,0H949.55l-22.41-35.18.61,35.18H913.59v-57.93h12.68l22.58,36.48-.61-36.48H962.4Zm-9.73-85.78v18.76H938.51V953.89h18.33a54.11,54.11,0,0,1,11.16.87,15.46,15.46,0,0,1,6.64,3.3q7.13,5.91,7.13,15.9a18.86,18.86,0,0,1-3.91,12.11,16.49,16.49,0,0,1-10.51,6l15.72,19.71H966.13Zm37.39,68.87a14.36,14.36,0,0,0,11.07,4.92q9.3,0,14-9.64h15.46a28.46,28.46,0,0,1-10.56,16.5,31.07,31.07,0,0,1-40.34-2.51,30.31,30.31,0,0,1-.09-42.74,29.48,29.48,0,0,1,21.54-8.68q16.86,0,25.71,14a24.47,24.47,0,0,1,3.74,9.21h-15.46a15.5,15.5,0,0,0-5.52-7.36,14.91,14.91,0,0,0-19.58,2.12,17.1,17.1,0,0,0-4.43,12A17.48,17.48,0,0,0,990.06,1061.93Zm79.25-27.91h-18v8.86h17.46V1056h-17.46v9.72h18v13.12h-32.13v-57.93h32.13Zm-38.52-39.11a14.35,14.35,0,0,0,11.08,4.93q9.29,0,14-9.64h15.46a28.5,28.5,0,0,1-10.55,16.5,31.1,31.1,0,0,1-40.35-2.52,30.31,30.31,0,0,1-.08-42.73,29.4,29.4,0,0,1,21.54-8.68q16.85,0,25.7,14a24.37,24.37,0,0,1,3.74,9.2h-15.46a15.54,15.54,0,0,0-5.52-7.36,14.93,14.93,0,0,0-19.58,2.13,17.14,17.14,0,0,0-4.43,12A17.44,17.44,0,0,0,1030.79,994.91Zm25.84-71.21v21.11h-14.76V923.7l-17.29-36.82h16.07l8.6,23.28,8.68-23.28h15.9ZM1116.25,1076a9.93,9.93,0,0,1-7.88,3.32h-1.13v-8.75a5.41,5.41,0,0,0,3.36-1,3.09,3.09,0,0,0,1.25-2.6,3.31,3.31,0,0,0-.95-2.42,3.07,3.07,0,0,0-2.33-1q-2.19,0-3.68,3.64l-1.64,4a18,18,0,0,1-2.41,4.11,8.68,8.68,0,0,1-7.06,3.44,9,9,0,0,1-7.17-3.48,12.76,12.76,0,0,1-2.92-8.5q0-6,3.89-9.22a9.06,9.06,0,0,1,2.84-1.68,15.4,15.4,0,0,1,3.87-.62v8.65q-3.29.46-3.28,3.13a3.16,3.16,0,0,0,.77,2.12,2.35,2.35,0,0,0,1.84.9c1.37,0,2.5-1,3.38-2.92l1.9-4.2a16.34,16.34,0,0,1,4.2-6.12,8.67,8.67,0,0,1,5.63-1.82,9.7,9.7,0,0,1,7.68,3.15q2.76,3.15,2.76,8.78T1116.25,1076Zm2.26-38.15v8.71h-26.42v6.76h-7.73v-22.22h7.73v6.75Zm-3-13.05a11.13,11.13,0,0,1-4.23,2.69,20.83,20.83,0,0,1-6.27.74h-20.68v-8.71H1105q6.43,0,6.44-4.45a3.81,3.81,0,0,0-1.43-3.38c-1-.65-2.62-1-5-1h-20.64V1002H1105q7,0,10.45,3.38,3.67,3.58,3.68,9.68T1115.54,1024.83Zm-28.73-50.48a14.15,14.15,0,0,1,4-4.15,17.6,17.6,0,0,1,10.54-3.12q7.79,0,12.5,4.4c3.14,2.93,4.71,6.83,4.71,11.67v13.42h-34.15V985.1Q1084.36,978.29,1086.81,974.35Zm-2.45-11.68V954h34.15v8.7Zm29.72-18.22a17,17,0,0,1-12.57,5.17,17.21,17.21,0,0,1-12.7-5.15,17.4,17.4,0,0,1-5.12-12.77,17.7,17.7,0,0,1,5.15-12.88,17.76,17.76,0,0,1,25.21,0,17.71,17.71,0,0,1,5.12,12.88A17.49,17.49,0,0,1,1114.08,944.45Zm2.17-36.41a9.93,9.93,0,0,1-7.88,3.33h-1.13v-8.75a5.41,5.41,0,0,0,3.36-1,3.09,3.09,0,0,0,1.25-2.6,3.35,3.35,0,0,0-.95-2.43,3.11,3.11,0,0,0-2.33-1q-2.19,0-3.68,3.65l-1.64,4a18,18,0,0,1-2.41,4.11,8.68,8.68,0,0,1-7.06,3.44,9,9,0,0,1-7.17-3.48,12.78,12.78,0,0,1-2.92-8.5q0-6,3.89-9.22a9.3,9.3,0,0,1,2.84-1.69,16,16,0,0,1,3.87-.61V896q-3.29.46-3.28,3.12a3.19,3.19,0,0,0,.77,2.13,2.35,2.35,0,0,0,1.84.9c1.37,0,2.5-1,3.38-2.92l1.9-4.2a16.34,16.34,0,0,1,4.2-6.12,8.67,8.67,0,0,1,5.63-1.82,9.7,9.7,0,0,1,7.68,3.15q2.76,3.15,2.76,8.78T1116.25,908Z" transform="translate(88.35 69.12)" fill="#d6097a"/><rect y="10.83" width="735.91" height="2071.08" fill="#d6097a"/><rect x="586.6" width="1011.32" height="820.81" fill="#d6097a"/><rect x="1353.05" y="0.27" width="878.02" height="1636.76" fill="#d6097a"/><rect x="539.06" y="1190.15" width="1840.66" height="914.63" fill="#d6097a"/></svg>