<svg xmlns="http://www.w3.org/2000/svg" viewBox="0 0 302.95 122.66"><rect width="302.95" height="122.66"/><path d="M115.21,109q4.52-4.48,4.51-11.89a16,16,0,0,0-3.2-10,14.1,14.1,0,0,0-4.26-3.75q-4-2.34-11-2.34H89.47v32.52h13.76q7.45,0,12-4.49ZM102.28,88.3a8.27,8.27,0,0,1,6.31,2.35,9.38,9.38,0,0,1,2.2,6.67q0,8.78-8.56,8.78H98.4V88.3Zm52.48,25.16L140.84,80.94h-7.09l-14,32.52h9.61l1.84-4.73h12.19l1.68,4.73Zm-13.82-11.31h-7.3L137.32,91l3.62,11.12Zm24.79-8.44,13.56,19.75h7.77V80.94H178.5l.37,20.48L165.21,80.94h-7.67v32.52h8.56l-.37-19.75ZM203.79,104a9.4,9.4,0,0,1-2.71-6.84,9.27,9.27,0,0,1,2.68-6.75,9,9,0,0,1,6.67-2.71,9.18,9.18,0,0,1,5.18,1.52,8.81,8.81,0,0,1,3.33,4.13h9.35A13,13,0,0,0,226,88.16q-5.35-7.86-15.55-7.85a18.52,18.52,0,0,0-13,4.87,16.15,16.15,0,0,0,0,24,18.63,18.63,0,0,0,13.08,4.92,19,19,0,0,0,11.32-3.51,16,16,0,0,0,6.38-9.26h-9.35q-2.83,5.42-8.46,5.41a9,9,0,0,1-6.69-2.76Zm47.93,2.13H240.84v-5.46H251.4V93.27H240.84v-5h10.88V80.94H232.28v32.52h19.44V106.1Z" transform="translate(1.41 2.93)" fill="#fff"/><path d="M57.69,68.48H46.82V63H57.37V55.66H46.82v-5H57.69V43.32H38.26V75.84H57.69V68.48Zm24.48,0H71.82V43.32H62.89V75.84H82.17V68.48Zm23.11,0H94.4V63H105V55.66H94.4v-5h10.88V43.32H85.84V75.84h19.44V68.48Zm15.36-2.13a9.4,9.4,0,0,1-2.7-6.84,9.24,9.24,0,0,1,2.67-6.74,9,9,0,0,1,6.68-2.72,9.15,9.15,0,0,1,5.17,1.52,8.83,8.83,0,0,1,3.33,4.14h9.35a13.18,13.18,0,0,0-2.25-5.17q-5.37-7.84-15.55-7.85a18.55,18.55,0,0,0-13,4.88,16.16,16.16,0,0,0,0,24,18.67,18.67,0,0,0,13.08,4.93A19,19,0,0,0,138.76,73a15.92,15.92,0,0,0,6.38-9.27h-9.35q-2.83,5.42-8.45,5.41a9,9,0,0,1-6.7-2.76Zm41.73-15.66h6.94V43.32h-22.8v7.37h6.93V75.84h8.93V50.69Zm18.81,14.62,8.14,10.53h10.24l-9.51-11.07a9.85,9.85,0,0,0,8.72-10.18,10.68,10.68,0,0,0-4.31-8.93,9.79,9.79,0,0,0-4-1.85,35.26,35.26,0,0,0-6.75-.49H172.61V75.84h8.57V65.31Zm3.25-14.62q5.73,0,5.73,4.41c0,3-1.95,4.56-5.83,4.56h-3.15v-9Zm27.89-7.37h-8.93V75.84h8.93V43.32Zm16.1,23a9.4,9.4,0,0,1-2.7-6.84,9.21,9.21,0,0,1,2.68-6.74,9,9,0,0,1,6.67-2.72,9.15,9.15,0,0,1,5.17,1.52,8.92,8.92,0,0,1,3.34,4.14h9.35a13.36,13.36,0,0,0-2.26-5.17q-5.37-7.84-15.55-7.85a18.55,18.55,0,0,0-13,4.88,16.15,16.15,0,0,0,.06,24,18.63,18.63,0,0,0,13.07,4.93A19,19,0,0,0,246.54,73a16,16,0,0,0,6.39-9.27h-9.35c-1.9,3.61-4.71,5.41-8.46,5.41a9,9,0,0,1-6.7-2.76Z" transform="translate(1.41 2.93)" fill="#fff"/><path d="M142.83,37.66a10.27,10.27,0,0,0,4.26-2.26,8.93,8.93,0,0,0,3.2-7q0-5.76-5.78-7.56a7.07,7.07,0,0,0,4.05-6.58,7.92,7.92,0,0,0-3.31-6.73,8.27,8.27,0,0,0-3.49-1.41,39.37,39.37,0,0,0-6.49-.39H124.5V38.22h11.08a32.85,32.85,0,0,0,7.25-.56Zm-6.62-24.59q3.79,0,3.79,2.46t-3.79,2.56h-3.15v-5Zm1,11.94q4.47,0,4.47,2.81,0,3-4.47,3h-4.2V25Zm47.67,9a15.53,15.53,0,0,0,5.38-12,15.64,15.64,0,0,0-5.38-12,18.93,18.93,0,0,0-13.21-4.9A18.57,18.57,0,0,0,158.62,10,15.79,15.79,0,0,0,153.34,22a15.6,15.6,0,0,0,5.3,12,18.69,18.69,0,0,0,13.08,4.85A19,19,0,0,0,184.93,34Zm-6.3-18.78A9.29,9.29,0,0,1,181.39,22a9.36,9.36,0,0,1-9.46,9.46A9.43,9.43,0,0,1,165,28.76a9.32,9.32,0,0,1-2.75-6.87A9.13,9.13,0,0,1,165,15.15a9.86,9.86,0,0,1,13.63,0Zm41.89,18.54Q225,29.26,225,21.84a15.89,15.89,0,0,0-3.2-10,14.18,14.18,0,0,0-4.25-3.75q-4.05-2.34-11-2.34H194.78V38.22h13.76q7.46,0,12-4.48ZM207.6,13.07a8.21,8.21,0,0,1,6.3,2.35,9.38,9.38,0,0,1,2.2,6.67q0,8.78-8.56,8.77h-3.83V13.07Zm36.45,13.31,10.4-20.67h-9.61l-5.26,13.06-5.2-13.06h-9.71l10.45,20.67V38.22h8.93V26.38Z" transform="translate(1.41 2.93)" fill="#fff"/><path d="M260.41,106.71a6.87,6.87,0,0,0,1.77,4.77,5.62,5.62,0,0,0,4.33,2,5.4,5.4,0,0,0,4.28-1.93,10,10,0,0,0,1.45-2.31l1-2.22c.6-1.36,1.35-2,2.23-2a2,2,0,0,1,1.41.55,1.82,1.82,0,0,1,.57,1.36,1.72,1.72,0,0,1-.75,1.47,3.53,3.53,0,0,1-2,.53v4.92h.68a6.28,6.28,0,0,0,4.77-1.87,7.14,7.14,0,0,0,1.76-5.09,6.93,6.93,0,0,0-1.67-4.93,6.1,6.1,0,0,0-4.64-1.76,5.52,5.52,0,0,0-3.41,1,9.34,9.34,0,0,0-2.54,3.43l-1.15,2.36c-.53,1.09-1.21,1.64-2,1.64a1.45,1.45,0,0,1-1.11-.51,1.69,1.69,0,0,1-.47-1.19c0-1,.66-1.58,2-1.75v-4.86a10.28,10.28,0,0,0-2.33.34,5.84,5.84,0,0,0-1.72,1,6.15,6.15,0,0,0-2.36,5.18Zm5.08-16.24V86.68h-4.67V99.15h4.67v-3.8h16V90.47Zm11.63-5.82a6.76,6.76,0,0,0,2.55-1.51,7,7,0,0,0,2.2-5.46,6.93,6.93,0,0,0-2.23-5.43c-1.4-1.27-3.51-1.9-6.31-1.9H260.82v4.89H273.3a6.1,6.1,0,0,1,3,.54,2.07,2.07,0,0,1,.87,1.9q0,2.5-3.9,2.5H260.82v4.89h12.51a13.33,13.33,0,0,0,3.79-.42Zm1.5-31.46a12.62,12.62,0,0,0-13.93-.71,8.28,8.28,0,0,0-2.39,2.32,10.73,10.73,0,0,0-1.48,6v6.44h20.65V59.75a8.26,8.26,0,0,0-2.85-6.56Zm-13.13,7.07a4.15,4.15,0,0,1,1.5-3.44,6.52,6.52,0,0,1,4.23-1.21c3.72,0,5.57,1.56,5.57,4.68v2.1h-11.3V60.26Zm-4.67-16.89v4.88h20.65V43.37Zm18-19.73a11.33,11.33,0,0,0-15.25,0,9.54,9.54,0,0,0-3.12,7.23,9.44,9.44,0,0,0,3.1,7.17,10.83,10.83,0,0,0,7.68,2.88,10.64,10.64,0,0,0,7.6-2.9,9.41,9.41,0,0,0,3.08-7.15,9.59,9.59,0,0,0-3.09-7.23Zm-11.93,3.45a6.93,6.93,0,0,1,8.61,0,4.67,4.67,0,0,1,1.74,3.68,4.81,4.81,0,0,1-1.74,3.78A6.41,6.41,0,0,1,271.1,36a6.32,6.32,0,0,1-4.29-1.5,4.86,4.86,0,0,1,0-7.45Zm-6.44-14.67a6.87,6.87,0,0,0,1.77,4.77,5.62,5.62,0,0,0,4.33,1.95,5.4,5.4,0,0,0,4.28-1.93,10.17,10.17,0,0,0,1.45-2.31l1-2.22c.6-1.36,1.35-2,2.23-2a2,2,0,0,1,1.41.55,1.82,1.82,0,0,1,.57,1.36,1.72,1.72,0,0,1-.75,1.47,3.53,3.53,0,0,1-2,.53v4.92h.68a6.28,6.28,0,0,0,4.77-1.87,7.14,7.14,0,0,0,1.76-5.09,6.91,6.91,0,0,0-1.67-4.93,6.06,6.06,0,0,0-4.64-1.76,5.52,5.52,0,0,0-3.41,1,9.34,9.34,0,0,0-2.54,3.43l-1.15,2.36c-.53,1.09-1.21,1.63-2,1.63a1.44,1.44,0,0,1-1.11-.5,1.69,1.69,0,0,1-.47-1.19c0-1,.66-1.58,2-1.75V6a10.28,10.28,0,0,0-2.33.34,5.84,5.84,0,0,0-1.72,1,6.15,6.15,0,0,0-2.36,5.18Z" transform="translate(1.41 2.93)" fill="#fff"/></svg>